<svg width="1085" height="254" viewBox="0 0 1085 254" fill="none" xmlns="http://www.w3.org/2000/svg">
<mask id="path-1-outside-1_727_163" maskUnits="userSpaceOnUse" x="0" y="0" width="1085" height="254" fill="black">
<rect fill="white" width="1085" height="254"/>
<path d="M159.058 126.383C159.058 132.754 158.208 138.822 156.509 144.586C154.81 150.29 152.414 155.569 149.319 160.423C146.285 165.277 142.645 169.676 138.397 173.62C134.15 177.504 129.447 180.811 124.29 183.541C119.193 186.271 113.702 188.395 107.816 189.912C101.991 191.368 95.984 192.096 89.7949 192.096H32V61.034H89.7949C95.984 61.034 101.991 61.7621 107.816 63.2184C113.641 64.6746 119.102 66.768 124.199 69.4984C129.356 72.1682 134.059 75.4448 138.306 79.3281C142.614 83.2115 146.285 87.5802 149.319 92.4344C152.414 97.2279 154.81 102.507 156.509 108.271C158.208 113.975 159.058 120.012 159.058 126.383ZM122.379 126.383C122.379 119.284 121.499 112.549 119.739 106.178C118.04 99.746 115.37 94.103 111.73 89.2488C108.089 84.3947 103.447 80.5417 97.8043 77.6898C92.222 74.838 85.5172 73.4121 77.6898 73.4121H68.1332V179.354H77.6898C85.3958 179.354 92.04 177.928 97.6223 175.077C103.265 172.164 107.907 168.281 111.548 163.427C115.249 158.512 117.979 152.869 119.739 146.498C121.499 140.127 122.379 133.422 122.379 126.383Z"/>
<path d="M267.184 96.257L249.891 124.927C249.163 122.5 248.223 119.769 247.07 116.736C245.917 113.702 244.491 110.88 242.792 108.271C241.093 105.601 239.061 103.387 236.694 101.627C234.328 99.8066 231.597 98.8965 228.503 98.8965C225.651 98.8965 223.163 99.6246 221.039 101.081C218.976 102.537 217.217 104.448 215.761 106.815C214.304 109.121 213.091 111.76 212.12 114.733C211.21 117.646 210.482 120.619 209.936 123.653C209.45 126.626 209.116 129.508 208.934 132.299C208.752 135.03 208.661 137.396 208.661 139.398V192.096H177.807V86.9734H189.639L202.108 111.457C203.807 107.513 205.749 103.902 207.933 100.626C210.118 97.2885 212.636 94.4367 215.488 92.0703C218.339 89.6432 221.555 87.7622 225.135 86.4273C228.776 85.0924 232.871 84.425 237.422 84.425C239.789 84.425 242.428 84.6374 245.341 85.0621C248.253 85.4262 251.105 86.0936 253.896 87.0645C256.687 87.9746 259.266 89.1881 261.632 90.7051C263.999 92.222 265.849 94.0727 267.184 96.257Z"/>
<path d="M383.957 192.096H353.194V179.536C349.553 184.512 345.154 188.213 339.997 190.64C334.9 193.007 329.287 194.19 323.159 194.19C315.15 194.19 307.99 192.764 301.679 189.912C295.369 187.06 290.029 183.177 285.661 178.262C281.292 173.287 277.955 167.462 275.649 160.787C273.343 154.113 272.19 146.953 272.19 139.307C272.19 131.662 273.343 124.502 275.649 117.828C277.955 111.153 281.292 105.359 285.661 100.444C290.029 95.4682 295.369 91.5546 301.679 88.7027C307.99 85.8509 315.15 84.425 323.159 84.425C327.224 84.425 331.077 85.0318 334.718 86.2453C338.419 87.4589 341.787 89.1881 344.821 91.4332C347.915 93.6176 350.615 96.2874 352.921 99.4426C355.287 102.537 357.138 105.996 358.473 109.818L372.125 86.9734H383.957V192.096ZM353.012 139.307C353.012 136.577 352.86 133.695 352.557 130.661C352.314 127.627 351.859 124.624 351.192 121.65C350.524 118.677 349.584 115.856 348.37 113.186C347.217 110.455 345.701 108.059 343.82 105.996C341.999 103.872 339.784 102.203 337.175 100.99C334.566 99.7763 331.532 99.1695 328.074 99.1695C324.615 99.1695 321.612 99.8066 319.063 101.081C316.515 102.294 314.33 103.963 312.51 106.087C310.69 108.15 309.173 110.546 307.959 113.277C306.806 116.007 305.896 118.859 305.229 121.832C304.561 124.806 304.076 127.809 303.773 130.843C303.53 133.816 303.409 136.638 303.409 139.307C303.409 141.977 303.53 144.829 303.773 147.863C304.076 150.897 304.561 153.9 305.229 156.873C305.896 159.847 306.806 162.698 307.959 165.429C309.173 168.159 310.69 170.586 312.51 172.71C314.33 174.773 316.515 176.442 319.063 177.716C321.612 178.93 324.615 179.536 328.074 179.536C331.229 179.536 334.02 178.899 336.447 177.625C338.935 176.29 341.089 174.53 342.909 172.346C344.79 170.162 346.368 167.674 347.642 164.883C348.916 162.092 349.948 159.209 350.737 156.236C351.525 153.263 352.102 150.32 352.466 147.408C352.83 144.435 353.012 141.735 353.012 139.307Z"/>
<path d="M507.921 43.741L490.537 72.502C490.355 70.1962 489.93 67.5568 489.263 64.5836C488.595 61.5497 487.473 58.6979 485.895 56.0281C484.378 53.3583 482.254 51.1133 479.524 49.293C476.854 47.412 473.426 46.4715 469.239 46.4715C464.931 46.4715 461.472 47.321 458.863 49.0199C456.254 50.7189 454.252 53.2673 452.856 56.6652C451.461 60.0632 450.52 64.2802 450.035 69.3164C449.549 74.3526 449.307 80.2079 449.307 86.8824H481.162V99.0785H449.307V192.096H418.452V99.0785H399.339V86.8824H418.452C418.452 77.2348 419.484 68.9523 421.547 62.0352C423.61 55.118 426.735 49.4447 430.921 45.0152C435.108 40.5251 440.357 37.2486 446.667 35.1855C453.038 33.0618 460.471 32 468.966 32C474.063 32 478.614 32.3641 482.618 33.0922C486.684 33.7596 490.264 34.6698 493.358 35.8227C496.513 36.9148 499.274 38.1587 501.641 39.5543C504.007 40.9499 506.1 42.3454 507.921 43.741Z"/>
<path d="M540.14 192.096H509.286V99.1695H490.173V86.9734H509.286V48.2918H540.14V86.9734H571.996V99.1695H540.14V192.096Z"/>
<path d="M669.564 192.096H580.551V179.9L635.616 99.1695H580.551V86.9734H669.564V99.1695L614.5 179.9H669.564V192.096Z"/>
<path d="M797.077 139.307C797.077 144.768 796.349 149.896 794.893 154.689C793.437 159.483 791.404 163.912 788.795 167.977C786.246 172.043 783.152 175.714 779.511 178.99C775.871 182.206 771.866 184.937 767.497 187.182C763.189 189.427 758.547 191.156 753.572 192.37C748.657 193.583 743.59 194.19 738.372 194.19C733.154 194.19 728.087 193.583 723.173 192.37C718.258 191.156 713.616 189.427 709.247 187.182C704.939 184.937 700.965 182.206 697.324 178.99C693.684 175.714 690.559 172.043 687.95 167.977C685.401 163.912 683.399 159.483 681.943 154.689C680.486 149.835 679.758 144.708 679.758 139.307C679.758 133.907 680.486 128.81 681.943 124.017C683.399 119.163 685.401 114.703 687.95 110.637C690.559 106.572 693.684 102.932 697.324 99.7156C700.965 96.4391 704.939 93.6783 709.247 91.4332C713.616 89.1881 718.258 87.4589 723.173 86.2453C728.087 85.0318 733.154 84.425 738.372 84.425C743.59 84.425 748.657 85.0318 753.572 86.2453C758.547 87.4589 763.189 89.1881 767.497 91.4332C771.866 93.6783 775.871 96.4391 779.511 99.7156C783.152 102.932 786.246 106.572 788.795 110.637C791.404 114.703 793.437 119.163 794.893 124.017C796.349 128.81 797.077 133.907 797.077 139.307ZM765.768 139.307C765.768 136.395 765.586 133.331 765.222 130.115C764.918 126.838 764.372 123.653 763.584 120.558C762.795 117.403 761.703 114.399 760.307 111.548C758.972 108.635 757.303 106.117 755.301 103.993C753.299 101.809 750.902 100.08 748.111 98.8055C745.32 97.4706 742.074 96.8031 738.372 96.8031C734.853 96.8031 731.728 97.4706 728.998 98.8055C726.267 100.14 723.87 101.93 721.807 104.175C719.805 106.36 718.106 108.908 716.711 111.821C715.376 114.733 714.283 117.767 713.434 120.922C712.584 124.017 711.978 127.172 711.614 130.388C711.25 133.543 711.068 136.516 711.068 139.307C711.068 142.099 711.25 145.102 711.614 148.318C711.978 151.473 712.584 154.628 713.434 157.784C714.283 160.939 715.376 163.973 716.711 166.885C718.106 169.737 719.805 172.285 721.807 174.53C723.87 176.715 726.267 178.474 728.998 179.809C731.728 181.144 734.853 181.812 738.372 181.812C742.013 181.812 745.229 181.175 748.02 179.9C750.811 178.565 753.208 176.806 755.21 174.621C757.273 172.437 758.972 169.919 760.307 167.067C761.642 164.215 762.704 161.212 763.493 158.057C764.342 154.901 764.918 151.716 765.222 148.5C765.586 145.284 765.768 142.22 765.768 139.307Z"/>
<path d="M924.044 131.844C924.044 138.943 923.164 146.346 921.405 154.052C919.706 161.758 917.309 169.312 914.214 176.715C911.12 184.117 907.419 191.065 903.111 197.557C898.802 204.111 894.07 209.754 888.912 214.486L877.353 208.206C878.991 205.172 880.539 201.774 881.995 198.012C883.451 194.251 884.756 190.276 885.909 186.089C887.122 181.842 888.184 177.473 889.094 172.983C890.065 168.493 890.854 164.064 891.461 159.695C892.128 155.265 892.613 150.988 892.917 146.862C893.281 142.675 893.463 138.792 893.463 135.212C893.463 132.845 893.372 130.327 893.19 127.657C893.008 124.927 892.613 122.227 892.007 119.557C891.46 116.827 890.702 114.217 889.731 111.73C888.76 109.242 887.456 107.058 885.818 105.177C884.24 103.296 882.298 101.779 879.993 100.626C877.748 99.4729 875.078 98.8965 871.983 98.8965C868.949 98.8965 866.249 99.5943 863.883 100.99C861.516 102.325 859.423 104.115 857.603 106.36C855.782 108.544 854.205 111.062 852.87 113.914C851.596 116.766 850.534 119.709 849.684 122.743C848.896 125.716 848.319 128.659 847.955 131.571C847.591 134.484 847.409 137.093 847.409 139.398V192.096H816.555V86.9734H828.387L842.494 111.457C844.193 107.391 846.317 103.69 848.865 100.353C851.414 97.0155 854.296 94.1637 857.512 91.7973C860.728 89.4309 864.277 87.6105 868.161 86.3363C872.105 85.0621 876.352 84.425 880.903 84.425C888.184 84.425 894.525 85.6082 899.925 87.9746C905.325 90.341 909.815 93.6479 913.395 97.8953C916.975 102.082 919.645 107.088 921.405 112.913C923.164 118.677 924.044 124.988 924.044 131.844Z"/>
<path d="M969.643 142.22C973.405 143.069 977.167 143.737 980.929 144.222C984.691 144.708 988.483 144.95 992.306 144.95C996.311 144.95 1000.01 144.586 1003.41 143.858C1006.87 143.069 1009.84 141.795 1012.33 140.036C1014.88 138.215 1016.88 135.818 1018.34 132.845C1019.79 129.872 1020.52 126.171 1020.52 121.741C1020.52 118.161 1020.04 114.885 1019.06 111.912C1018.09 108.939 1016.64 106.39 1014.7 104.266C1012.81 102.143 1010.48 100.504 1007.69 99.3516C1004.9 98.138 1001.65 97.5312 997.949 97.5312C994.49 97.5312 991.365 98.1684 988.574 99.4426C985.844 100.717 983.417 102.446 981.293 104.63C979.23 106.754 977.44 109.242 975.923 112.094C974.467 114.946 973.253 117.919 972.282 121.013C971.312 124.108 970.614 127.233 970.189 130.388C969.764 133.543 969.552 136.516 969.552 139.307C969.552 139.793 969.552 140.278 969.552 140.764C969.552 141.249 969.582 141.735 969.643 142.22ZM1045.46 121.468C1045.46 125.776 1044.76 129.629 1043.37 133.027C1041.97 136.365 1040.06 139.307 1037.63 141.856C1035.27 144.404 1032.5 146.558 1029.35 148.318C1026.19 150.078 1022.83 151.534 1019.25 152.687C1015.67 153.779 1011.97 154.568 1008.14 155.053C1004.38 155.539 1000.71 155.781 997.13 155.781C992.579 155.781 988.089 155.478 983.659 154.871C979.23 154.204 974.861 153.172 970.553 151.777C971.221 155.781 972.282 159.604 973.739 163.245C975.195 166.824 977.137 169.98 979.564 172.71C981.991 175.38 984.964 177.504 988.483 179.081C992.063 180.659 996.28 181.448 1001.13 181.448C1004.35 181.448 1007.41 180.962 1010.33 179.991C1013.24 179.021 1015.91 177.655 1018.34 175.896C1020.76 174.136 1022.89 172.043 1024.71 169.616C1026.59 167.189 1028.11 164.488 1029.26 161.515L1042.55 166.43C1040.54 171.224 1037.78 175.38 1034.26 178.899C1030.81 182.358 1026.86 185.24 1022.43 187.546C1018.06 189.791 1013.39 191.459 1008.42 192.552C1003.5 193.644 998.616 194.19 993.762 194.19C985.753 194.19 978.35 192.855 971.554 190.185C964.758 187.455 958.903 183.662 953.988 178.808C949.073 173.954 945.22 168.159 942.429 161.424C939.638 154.689 938.243 147.317 938.243 139.307C938.243 131.298 939.638 123.926 942.429 117.191C945.22 110.455 949.073 104.661 953.988 99.8066C958.903 94.9525 964.758 91.1905 971.554 88.5207C978.35 85.7902 985.753 84.425 993.762 84.425C997.645 84.425 1001.62 84.698 1005.69 85.2441C1009.75 85.7902 1013.69 86.67 1017.52 87.8836C1021.34 89.0365 1024.95 90.5534 1028.35 92.4344C1031.75 94.3154 1034.69 96.6514 1037.18 99.4426C1039.73 102.173 1041.73 105.359 1043.18 108.999C1044.7 112.64 1045.46 116.796 1045.46 121.468Z"/>
</mask>
<path d="M159.058 126.383C159.058 132.754 158.208 138.822 156.509 144.586C154.81 150.29 152.414 155.569 149.319 160.423C146.285 165.277 142.645 169.676 138.397 173.62C134.15 177.504 129.447 180.811 124.29 183.541C119.193 186.271 113.702 188.395 107.816 189.912C101.991 191.368 95.984 192.096 89.7949 192.096H32V61.034H89.7949C95.984 61.034 101.991 61.7621 107.816 63.2184C113.641 64.6746 119.102 66.768 124.199 69.4984C129.356 72.1682 134.059 75.4448 138.306 79.3281C142.614 83.2115 146.285 87.5802 149.319 92.4344C152.414 97.2279 154.81 102.507 156.509 108.271C158.208 113.975 159.058 120.012 159.058 126.383ZM122.379 126.383C122.379 119.284 121.499 112.549 119.739 106.178C118.04 99.746 115.37 94.103 111.73 89.2488C108.089 84.3947 103.447 80.5417 97.8043 77.6898C92.222 74.838 85.5172 73.4121 77.6898 73.4121H68.1332V179.354H77.6898C85.3958 179.354 92.04 177.928 97.6223 175.077C103.265 172.164 107.907 168.281 111.548 163.427C115.249 158.512 117.979 152.869 119.739 146.498C121.499 140.127 122.379 133.422 122.379 126.383Z" fill="#302E2D"/>
<path d="M267.184 96.257L249.891 124.927C249.163 122.5 248.223 119.769 247.07 116.736C245.917 113.702 244.491 110.88 242.792 108.271C241.093 105.601 239.061 103.387 236.694 101.627C234.328 99.8066 231.597 98.8965 228.503 98.8965C225.651 98.8965 223.163 99.6246 221.039 101.081C218.976 102.537 217.217 104.448 215.761 106.815C214.304 109.121 213.091 111.76 212.12 114.733C211.21 117.646 210.482 120.619 209.936 123.653C209.45 126.626 209.116 129.508 208.934 132.299C208.752 135.03 208.661 137.396 208.661 139.398V192.096H177.807V86.9734H189.639L202.108 111.457C203.807 107.513 205.749 103.902 207.933 100.626C210.118 97.2885 212.636 94.4367 215.488 92.0703C218.339 89.6432 221.555 87.7622 225.135 86.4273C228.776 85.0924 232.871 84.425 237.422 84.425C239.789 84.425 242.428 84.6374 245.341 85.0621C248.253 85.4262 251.105 86.0936 253.896 87.0645C256.687 87.9746 259.266 89.1881 261.632 90.7051C263.999 92.222 265.849 94.0727 267.184 96.257Z" fill="#302E2D"/>
<path d="M383.957 192.096H353.194V179.536C349.553 184.512 345.154 188.213 339.997 190.64C334.9 193.007 329.287 194.19 323.159 194.19C315.15 194.19 307.99 192.764 301.679 189.912C295.369 187.06 290.029 183.177 285.661 178.262C281.292 173.287 277.955 167.462 275.649 160.787C273.343 154.113 272.19 146.953 272.19 139.307C272.19 131.662 273.343 124.502 275.649 117.828C277.955 111.153 281.292 105.359 285.661 100.444C290.029 95.4682 295.369 91.5546 301.679 88.7027C307.99 85.8509 315.15 84.425 323.159 84.425C327.224 84.425 331.077 85.0318 334.718 86.2453C338.419 87.4589 341.787 89.1881 344.821 91.4332C347.915 93.6176 350.615 96.2874 352.921 99.4426C355.287 102.537 357.138 105.996 358.473 109.818L372.125 86.9734H383.957V192.096ZM353.012 139.307C353.012 136.577 352.86 133.695 352.557 130.661C352.314 127.627 351.859 124.624 351.192 121.65C350.524 118.677 349.584 115.856 348.37 113.186C347.217 110.455 345.701 108.059 343.82 105.996C341.999 103.872 339.784 102.203 337.175 100.99C334.566 99.7763 331.532 99.1695 328.074 99.1695C324.615 99.1695 321.612 99.8066 319.063 101.081C316.515 102.294 314.33 103.963 312.51 106.087C310.69 108.15 309.173 110.546 307.959 113.277C306.806 116.007 305.896 118.859 305.229 121.832C304.561 124.806 304.076 127.809 303.773 130.843C303.53 133.816 303.409 136.638 303.409 139.307C303.409 141.977 303.53 144.829 303.773 147.863C304.076 150.897 304.561 153.9 305.229 156.873C305.896 159.847 306.806 162.698 307.959 165.429C309.173 168.159 310.69 170.586 312.51 172.71C314.33 174.773 316.515 176.442 319.063 177.716C321.612 178.93 324.615 179.536 328.074 179.536C331.229 179.536 334.02 178.899 336.447 177.625C338.935 176.29 341.089 174.53 342.909 172.346C344.79 170.162 346.368 167.674 347.642 164.883C348.916 162.092 349.948 159.209 350.737 156.236C351.525 153.263 352.102 150.32 352.466 147.408C352.83 144.435 353.012 141.735 353.012 139.307Z" fill="#302E2D"/>
<path d="M507.921 43.741L490.537 72.502C490.355 70.1962 489.93 67.5568 489.263 64.5836C488.595 61.5497 487.473 58.6979 485.895 56.0281C484.378 53.3583 482.254 51.1133 479.524 49.293C476.854 47.412 473.426 46.4715 469.239 46.4715C464.931 46.4715 461.472 47.321 458.863 49.0199C456.254 50.7189 454.252 53.2673 452.856 56.6652C451.461 60.0632 450.52 64.2802 450.035 69.3164C449.549 74.3526 449.307 80.2079 449.307 86.8824H481.162V99.0785H449.307V192.096H418.452V99.0785H399.339V86.8824H418.452C418.452 77.2348 419.484 68.9523 421.547 62.0352C423.61 55.118 426.735 49.4447 430.921 45.0152C435.108 40.5251 440.357 37.2486 446.667 35.1855C453.038 33.0618 460.471 32 468.966 32C474.063 32 478.614 32.3641 482.618 33.0922C486.684 33.7596 490.264 34.6698 493.358 35.8227C496.513 36.9148 499.274 38.1587 501.641 39.5543C504.007 40.9499 506.1 42.3454 507.921 43.741Z" fill="#302E2D"/>
<path d="M540.14 192.096H509.286V99.1695H490.173V86.9734H509.286V48.2918H540.14V86.9734H571.996V99.1695H540.14V192.096Z" fill="#302E2D"/>
<path d="M669.564 192.096H580.551V179.9L635.616 99.1695H580.551V86.9734H669.564V99.1695L614.5 179.9H669.564V192.096Z" fill="#302E2D"/>
<path d="M797.077 139.307C797.077 144.768 796.349 149.896 794.893 154.689C793.437 159.483 791.404 163.912 788.795 167.977C786.246 172.043 783.152 175.714 779.511 178.99C775.871 182.206 771.866 184.937 767.497 187.182C763.189 189.427 758.547 191.156 753.572 192.37C748.657 193.583 743.59 194.19 738.372 194.19C733.154 194.19 728.087 193.583 723.173 192.37C718.258 191.156 713.616 189.427 709.247 187.182C704.939 184.937 700.965 182.206 697.324 178.99C693.684 175.714 690.559 172.043 687.95 167.977C685.401 163.912 683.399 159.483 681.943 154.689C680.486 149.835 679.758 144.708 679.758 139.307C679.758 133.907 680.486 128.81 681.943 124.017C683.399 119.163 685.401 114.703 687.95 110.637C690.559 106.572 693.684 102.932 697.324 99.7156C700.965 96.4391 704.939 93.6783 709.247 91.4332C713.616 89.1881 718.258 87.4589 723.173 86.2453C728.087 85.0318 733.154 84.425 738.372 84.425C743.59 84.425 748.657 85.0318 753.572 86.2453C758.547 87.4589 763.189 89.1881 767.497 91.4332C771.866 93.6783 775.871 96.4391 779.511 99.7156C783.152 102.932 786.246 106.572 788.795 110.637C791.404 114.703 793.437 119.163 794.893 124.017C796.349 128.81 797.077 133.907 797.077 139.307ZM765.768 139.307C765.768 136.395 765.586 133.331 765.222 130.115C764.918 126.838 764.372 123.653 763.584 120.558C762.795 117.403 761.703 114.399 760.307 111.548C758.972 108.635 757.303 106.117 755.301 103.993C753.299 101.809 750.902 100.08 748.111 98.8055C745.32 97.4706 742.074 96.8031 738.372 96.8031C734.853 96.8031 731.728 97.4706 728.998 98.8055C726.267 100.14 723.87 101.93 721.807 104.175C719.805 106.36 718.106 108.908 716.711 111.821C715.376 114.733 714.283 117.767 713.434 120.922C712.584 124.017 711.978 127.172 711.614 130.388C711.25 133.543 711.068 136.516 711.068 139.307C711.068 142.099 711.25 145.102 711.614 148.318C711.978 151.473 712.584 154.628 713.434 157.784C714.283 160.939 715.376 163.973 716.711 166.885C718.106 169.737 719.805 172.285 721.807 174.53C723.87 176.715 726.267 178.474 728.998 179.809C731.728 181.144 734.853 181.812 738.372 181.812C742.013 181.812 745.229 181.175 748.02 179.9C750.811 178.565 753.208 176.806 755.21 174.621C757.273 172.437 758.972 169.919 760.307 167.067C761.642 164.215 762.704 161.212 763.493 158.057C764.342 154.901 764.918 151.716 765.222 148.5C765.586 145.284 765.768 142.22 765.768 139.307Z" fill="#302E2D"/>
<path d="M924.044 131.844C924.044 138.943 923.164 146.346 921.405 154.052C919.706 161.758 917.309 169.312 914.214 176.715C911.12 184.117 907.419 191.065 903.111 197.557C898.802 204.111 894.07 209.754 888.912 214.486L877.353 208.206C878.991 205.172 880.539 201.774 881.995 198.012C883.451 194.251 884.756 190.276 885.909 186.089C887.122 181.842 888.184 177.473 889.094 172.983C890.065 168.493 890.854 164.064 891.461 159.695C892.128 155.265 892.613 150.988 892.917 146.862C893.281 142.675 893.463 138.792 893.463 135.212C893.463 132.845 893.372 130.327 893.19 127.657C893.008 124.927 892.613 122.227 892.007 119.557C891.46 116.827 890.702 114.217 889.731 111.73C888.76 109.242 887.456 107.058 885.818 105.177C884.24 103.296 882.298 101.779 879.993 100.626C877.748 99.4729 875.078 98.8965 871.983 98.8965C868.949 98.8965 866.249 99.5943 863.883 100.99C861.516 102.325 859.423 104.115 857.603 106.36C855.782 108.544 854.205 111.062 852.87 113.914C851.596 116.766 850.534 119.709 849.684 122.743C848.896 125.716 848.319 128.659 847.955 131.571C847.591 134.484 847.409 137.093 847.409 139.398V192.096H816.555V86.9734H828.387L842.494 111.457C844.193 107.391 846.317 103.69 848.865 100.353C851.414 97.0155 854.296 94.1637 857.512 91.7973C860.728 89.4309 864.277 87.6105 868.161 86.3363C872.105 85.0621 876.352 84.425 880.903 84.425C888.184 84.425 894.525 85.6082 899.925 87.9746C905.325 90.341 909.815 93.6479 913.395 97.8953C916.975 102.082 919.645 107.088 921.405 112.913C923.164 118.677 924.044 124.988 924.044 131.844Z" fill="#302E2D"/>
<path d="M969.643 142.22C973.405 143.069 977.167 143.737 980.929 144.222C984.691 144.708 988.483 144.95 992.306 144.95C996.311 144.95 1000.01 144.586 1003.41 143.858C1006.87 143.069 1009.84 141.795 1012.33 140.036C1014.88 138.215 1016.88 135.818 1018.34 132.845C1019.79 129.872 1020.52 126.171 1020.52 121.741C1020.52 118.161 1020.04 114.885 1019.06 111.912C1018.09 108.939 1016.64 106.39 1014.7 104.266C1012.81 102.143 1010.48 100.504 1007.69 99.3516C1004.9 98.138 1001.65 97.5312 997.949 97.5312C994.49 97.5312 991.365 98.1684 988.574 99.4426C985.844 100.717 983.417 102.446 981.293 104.63C979.23 106.754 977.44 109.242 975.923 112.094C974.467 114.946 973.253 117.919 972.282 121.013C971.312 124.108 970.614 127.233 970.189 130.388C969.764 133.543 969.552 136.516 969.552 139.307C969.552 139.793 969.552 140.278 969.552 140.764C969.552 141.249 969.582 141.735 969.643 142.22ZM1045.46 121.468C1045.46 125.776 1044.76 129.629 1043.37 133.027C1041.97 136.365 1040.06 139.307 1037.63 141.856C1035.27 144.404 1032.5 146.558 1029.35 148.318C1026.19 150.078 1022.83 151.534 1019.25 152.687C1015.67 153.779 1011.97 154.568 1008.14 155.053C1004.38 155.539 1000.71 155.781 997.13 155.781C992.579 155.781 988.089 155.478 983.659 154.871C979.23 154.204 974.861 153.172 970.553 151.777C971.221 155.781 972.282 159.604 973.739 163.245C975.195 166.824 977.137 169.98 979.564 172.71C981.991 175.38 984.964 177.504 988.483 179.081C992.063 180.659 996.28 181.448 1001.13 181.448C1004.35 181.448 1007.41 180.962 1010.33 179.991C1013.24 179.021 1015.91 177.655 1018.34 175.896C1020.76 174.136 1022.89 172.043 1024.71 169.616C1026.59 167.189 1028.11 164.488 1029.26 161.515L1042.55 166.43C1040.54 171.224 1037.78 175.38 1034.26 178.899C1030.81 182.358 1026.86 185.24 1022.43 187.546C1018.06 189.791 1013.39 191.459 1008.42 192.552C1003.5 193.644 998.616 194.19 993.762 194.19C985.753 194.19 978.35 192.855 971.554 190.185C964.758 187.455 958.903 183.662 953.988 178.808C949.073 173.954 945.22 168.159 942.429 161.424C939.638 154.689 938.243 147.317 938.243 139.307C938.243 131.298 939.638 123.926 942.429 117.191C945.22 110.455 949.073 104.661 953.988 99.8066C958.903 94.9525 964.758 91.1905 971.554 88.5207C978.35 85.7902 985.753 84.425 993.762 84.425C997.645 84.425 1001.62 84.698 1005.69 85.2441C1009.75 85.7902 1013.69 86.67 1017.52 87.8836C1021.34 89.0365 1024.95 90.5534 1028.35 92.4344C1031.75 94.3154 1034.69 96.6514 1037.18 99.4426C1039.73 102.173 1041.73 105.359 1043.18 108.999C1044.7 112.64 1045.46 116.796 1045.46 121.468Z" fill="#302E2D"/>
<path d="M159.058 126.383C159.058 132.754 158.208 138.822 156.509 144.586C154.81 150.29 152.414 155.569 149.319 160.423C146.285 165.277 142.645 169.676 138.397 173.62C134.15 177.504 129.447 180.811 124.29 183.541C119.193 186.271 113.702 188.395 107.816 189.912C101.991 191.368 95.984 192.096 89.7949 192.096H32V61.034H89.7949C95.984 61.034 101.991 61.7621 107.816 63.2184C113.641 64.6746 119.102 66.768 124.199 69.4984C129.356 72.1682 134.059 75.4448 138.306 79.3281C142.614 83.2115 146.285 87.5802 149.319 92.4344C152.414 97.2279 154.81 102.507 156.509 108.271C158.208 113.975 159.058 120.012 159.058 126.383ZM122.379 126.383C122.379 119.284 121.499 112.549 119.739 106.178C118.04 99.746 115.37 94.103 111.73 89.2488C108.089 84.3947 103.447 80.5417 97.8043 77.6898C92.222 74.838 85.5172 73.4121 77.6898 73.4121H68.1332V179.354H77.6898C85.3958 179.354 92.04 177.928 97.6223 175.077C103.265 172.164 107.907 168.281 111.548 163.427C115.249 158.512 117.979 152.869 119.739 146.498C121.499 140.127 122.379 133.422 122.379 126.383Z" stroke="white" stroke-width="64" mask="url(#path-1-outside-1_727_163)"/>
<path d="M267.184 96.257L249.891 124.927C249.163 122.5 248.223 119.769 247.07 116.736C245.917 113.702 244.491 110.88 242.792 108.271C241.093 105.601 239.061 103.387 236.694 101.627C234.328 99.8066 231.597 98.8965 228.503 98.8965C225.651 98.8965 223.163 99.6246 221.039 101.081C218.976 102.537 217.217 104.448 215.761 106.815C214.304 109.121 213.091 111.76 212.12 114.733C211.21 117.646 210.482 120.619 209.936 123.653C209.45 126.626 209.116 129.508 208.934 132.299C208.752 135.03 208.661 137.396 208.661 139.398V192.096H177.807V86.9734H189.639L202.108 111.457C203.807 107.513 205.749 103.902 207.933 100.626C210.118 97.2885 212.636 94.4367 215.488 92.0703C218.339 89.6432 221.555 87.7622 225.135 86.4273C228.776 85.0924 232.871 84.425 237.422 84.425C239.789 84.425 242.428 84.6374 245.341 85.0621C248.253 85.4262 251.105 86.0936 253.896 87.0645C256.687 87.9746 259.266 89.1881 261.632 90.7051C263.999 92.222 265.849 94.0727 267.184 96.257Z" stroke="white" stroke-width="64" mask="url(#path-1-outside-1_727_163)"/>
<path d="M383.957 192.096H353.194V179.536C349.553 184.512 345.154 188.213 339.997 190.64C334.9 193.007 329.287 194.19 323.159 194.19C315.15 194.19 307.99 192.764 301.679 189.912C295.369 187.06 290.029 183.177 285.661 178.262C281.292 173.287 277.955 167.462 275.649 160.787C273.343 154.113 272.19 146.953 272.19 139.307C272.19 131.662 273.343 124.502 275.649 117.828C277.955 111.153 281.292 105.359 285.661 100.444C290.029 95.4682 295.369 91.5546 301.679 88.7027C307.99 85.8509 315.15 84.425 323.159 84.425C327.224 84.425 331.077 85.0318 334.718 86.2453C338.419 87.4589 341.787 89.1881 344.821 91.4332C347.915 93.6176 350.615 96.2874 352.921 99.4426C355.287 102.537 357.138 105.996 358.473 109.818L372.125 86.9734H383.957V192.096ZM353.012 139.307C353.012 136.577 352.86 133.695 352.557 130.661C352.314 127.627 351.859 124.624 351.192 121.65C350.524 118.677 349.584 115.856 348.37 113.186C347.217 110.455 345.701 108.059 343.82 105.996C341.999 103.872 339.784 102.203 337.175 100.99C334.566 99.7763 331.532 99.1695 328.074 99.1695C324.615 99.1695 321.612 99.8066 319.063 101.081C316.515 102.294 314.33 103.963 312.51 106.087C310.69 108.15 309.173 110.546 307.959 113.277C306.806 116.007 305.896 118.859 305.229 121.832C304.561 124.806 304.076 127.809 303.773 130.843C303.53 133.816 303.409 136.638 303.409 139.307C303.409 141.977 303.53 144.829 303.773 147.863C304.076 150.897 304.561 153.9 305.229 156.873C305.896 159.847 306.806 162.698 307.959 165.429C309.173 168.159 310.69 170.586 312.51 172.71C314.33 174.773 316.515 176.442 319.063 177.716C321.612 178.93 324.615 179.536 328.074 179.536C331.229 179.536 334.02 178.899 336.447 177.625C338.935 176.29 341.089 174.53 342.909 172.346C344.79 170.162 346.368 167.674 347.642 164.883C348.916 162.092 349.948 159.209 350.737 156.236C351.525 153.263 352.102 150.32 352.466 147.408C352.83 144.435 353.012 141.735 353.012 139.307Z" stroke="white" stroke-width="64" mask="url(#path-1-outside-1_727_163)"/>
<path d="M507.921 43.741L490.537 72.502C490.355 70.1962 489.93 67.5568 489.263 64.5836C488.595 61.5497 487.473 58.6979 485.895 56.0281C484.378 53.3583 482.254 51.1133 479.524 49.293C476.854 47.412 473.426 46.4715 469.239 46.4715C464.931 46.4715 461.472 47.321 458.863 49.0199C456.254 50.7189 454.252 53.2673 452.856 56.6652C451.461 60.0632 450.52 64.2802 450.035 69.3164C449.549 74.3526 449.307 80.2079 449.307 86.8824H481.162V99.0785H449.307V192.096H418.452V99.0785H399.339V86.8824H418.452C418.452 77.2348 419.484 68.9523 421.547 62.0352C423.61 55.118 426.735 49.4447 430.921 45.0152C435.108 40.5251 440.357 37.2486 446.667 35.1855C453.038 33.0618 460.471 32 468.966 32C474.063 32 478.614 32.3641 482.618 33.0922C486.684 33.7596 490.264 34.6698 493.358 35.8227C496.513 36.9148 499.274 38.1587 501.641 39.5543C504.007 40.9499 506.1 42.3454 507.921 43.741Z" stroke="white" stroke-width="64" mask="url(#path-1-outside-1_727_163)"/>
<path d="M540.14 192.096H509.286V99.1695H490.173V86.9734H509.286V48.2918H540.14V86.9734H571.996V99.1695H540.14V192.096Z" stroke="white" stroke-width="64" mask="url(#path-1-outside-1_727_163)"/>
<path d="M669.564 192.096H580.551V179.9L635.616 99.1695H580.551V86.9734H669.564V99.1695L614.5 179.9H669.564V192.096Z" stroke="white" stroke-width="64" mask="url(#path-1-outside-1_727_163)"/>
<path d="M797.077 139.307C797.077 144.768 796.349 149.896 794.893 154.689C793.437 159.483 791.404 163.912 788.795 167.977C786.246 172.043 783.152 175.714 779.511 178.99C775.871 182.206 771.866 184.937 767.497 187.182C763.189 189.427 758.547 191.156 753.572 192.37C748.657 193.583 743.59 194.19 738.372 194.19C733.154 194.19 728.087 193.583 723.173 192.37C718.258 191.156 713.616 189.427 709.247 187.182C704.939 184.937 700.965 182.206 697.324 178.99C693.684 175.714 690.559 172.043 687.95 167.977C685.401 163.912 683.399 159.483 681.943 154.689C680.486 149.835 679.758 144.708 679.758 139.307C679.758 133.907 680.486 128.81 681.943 124.017C683.399 119.163 685.401 114.703 687.95 110.637C690.559 106.572 693.684 102.932 697.324 99.7156C700.965 96.4391 704.939 93.6783 709.247 91.4332C713.616 89.1881 718.258 87.4589 723.173 86.2453C728.087 85.0318 733.154 84.425 738.372 84.425C743.59 84.425 748.657 85.0318 753.572 86.2453C758.547 87.4589 763.189 89.1881 767.497 91.4332C771.866 93.6783 775.871 96.4391 779.511 99.7156C783.152 102.932 786.246 106.572 788.795 110.637C791.404 114.703 793.437 119.163 794.893 124.017C796.349 128.81 797.077 133.907 797.077 139.307ZM765.768 139.307C765.768 136.395 765.586 133.331 765.222 130.115C764.918 126.838 764.372 123.653 763.584 120.558C762.795 117.403 761.703 114.399 760.307 111.548C758.972 108.635 757.303 106.117 755.301 103.993C753.299 101.809 750.902 100.08 748.111 98.8055C745.32 97.4706 742.074 96.8031 738.372 96.8031C734.853 96.8031 731.728 97.4706 728.998 98.8055C726.267 100.14 723.87 101.93 721.807 104.175C719.805 106.36 718.106 108.908 716.711 111.821C715.376 114.733 714.283 117.767 713.434 120.922C712.584 124.017 711.978 127.172 711.614 130.388C711.25 133.543 711.068 136.516 711.068 139.307C711.068 142.099 711.25 145.102 711.614 148.318C711.978 151.473 712.584 154.628 713.434 157.784C714.283 160.939 715.376 163.973 716.711 166.885C718.106 169.737 719.805 172.285 721.807 174.53C723.87 176.715 726.267 178.474 728.998 179.809C731.728 181.144 734.853 181.812 738.372 181.812C742.013 181.812 745.229 181.175 748.02 179.9C750.811 178.565 753.208 176.806 755.21 174.621C757.273 172.437 758.972 169.919 760.307 167.067C761.642 164.215 762.704 161.212 763.493 158.057C764.342 154.901 764.918 151.716 765.222 148.5C765.586 145.284 765.768 142.22 765.768 139.307Z" stroke="white" stroke-width="64" mask="url(#path-1-outside-1_727_163)"/>
<path d="M924.044 131.844C924.044 138.943 923.164 146.346 921.405 154.052C919.706 161.758 917.309 169.312 914.214 176.715C911.12 184.117 907.419 191.065 903.111 197.557C898.802 204.111 894.07 209.754 888.912 214.486L877.353 208.206C878.991 205.172 880.539 201.774 881.995 198.012C883.451 194.251 884.756 190.276 885.909 186.089C887.122 181.842 888.184 177.473 889.094 172.983C890.065 168.493 890.854 164.064 891.461 159.695C892.128 155.265 892.613 150.988 892.917 146.862C893.281 142.675 893.463 138.792 893.463 135.212C893.463 132.845 893.372 130.327 893.19 127.657C893.008 124.927 892.613 122.227 892.007 119.557C891.46 116.827 890.702 114.217 889.731 111.73C888.76 109.242 887.456 107.058 885.818 105.177C884.24 103.296 882.298 101.779 879.993 100.626C877.748 99.4729 875.078 98.8965 871.983 98.8965C868.949 98.8965 866.249 99.5943 863.883 100.99C861.516 102.325 859.423 104.115 857.603 106.36C855.782 108.544 854.205 111.062 852.87 113.914C851.596 116.766 850.534 119.709 849.684 122.743C848.896 125.716 848.319 128.659 847.955 131.571C847.591 134.484 847.409 137.093 847.409 139.398V192.096H816.555V86.9734H828.387L842.494 111.457C844.193 107.391 846.317 103.69 848.865 100.353C851.414 97.0155 854.296 94.1637 857.512 91.7973C860.728 89.4309 864.277 87.6105 868.161 86.3363C872.105 85.0621 876.352 84.425 880.903 84.425C888.184 84.425 894.525 85.6082 899.925 87.9746C905.325 90.341 909.815 93.6479 913.395 97.8953C916.975 102.082 919.645 107.088 921.405 112.913C923.164 118.677 924.044 124.988 924.044 131.844Z" stroke="white" stroke-width="64" mask="url(#path-1-outside-1_727_163)"/>
<path d="M969.643 142.22C973.405 143.069 977.167 143.737 980.929 144.222C984.691 144.708 988.483 144.95 992.306 144.95C996.311 144.95 1000.01 144.586 1003.41 143.858C1006.87 143.069 1009.84 141.795 1012.33 140.036C1014.88 138.215 1016.88 135.818 1018.34 132.845C1019.79 129.872 1020.52 126.171 1020.52 121.741C1020.52 118.161 1020.04 114.885 1019.06 111.912C1018.09 108.939 1016.64 106.39 1014.7 104.266C1012.81 102.143 1010.48 100.504 1007.69 99.3516C1004.9 98.138 1001.65 97.5312 997.949 97.5312C994.49 97.5312 991.365 98.1684 988.574 99.4426C985.844 100.717 983.417 102.446 981.293 104.63C979.23 106.754 977.44 109.242 975.923 112.094C974.467 114.946 973.253 117.919 972.282 121.013C971.312 124.108 970.614 127.233 970.189 130.388C969.764 133.543 969.552 136.516 969.552 139.307C969.552 139.793 969.552 140.278 969.552 140.764C969.552 141.249 969.582 141.735 969.643 142.22ZM1045.46 121.468C1045.46 125.776 1044.76 129.629 1043.37 133.027C1041.97 136.365 1040.06 139.307 1037.63 141.856C1035.27 144.404 1032.5 146.558 1029.35 148.318C1026.19 150.078 1022.83 151.534 1019.25 152.687C1015.67 153.779 1011.97 154.568 1008.14 155.053C1004.38 155.539 1000.71 155.781 997.13 155.781C992.579 155.781 988.089 155.478 983.659 154.871C979.23 154.204 974.861 153.172 970.553 151.777C971.221 155.781 972.282 159.604 973.739 163.245C975.195 166.824 977.137 169.98 979.564 172.71C981.991 175.38 984.964 177.504 988.483 179.081C992.063 180.659 996.28 181.448 1001.13 181.448C1004.35 181.448 1007.41 180.962 1010.33 179.991C1013.24 179.021 1015.91 177.655 1018.34 175.896C1020.76 174.136 1022.89 172.043 1024.71 169.616C1026.59 167.189 1028.11 164.488 1029.26 161.515L1042.55 166.43C1040.54 171.224 1037.78 175.38 1034.26 178.899C1030.81 182.358 1026.86 185.24 1022.43 187.546C1018.06 189.791 1013.39 191.459 1008.42 192.552C1003.5 193.644 998.616 194.19 993.762 194.19C985.753 194.19 978.35 192.855 971.554 190.185C964.758 187.455 958.903 183.662 953.988 178.808C949.073 173.954 945.22 168.159 942.429 161.424C939.638 154.689 938.243 147.317 938.243 139.307C938.243 131.298 939.638 123.926 942.429 117.191C945.22 110.455 949.073 104.661 953.988 99.8066C958.903 94.9525 964.758 91.1905 971.554 88.5207C978.35 85.7902 985.753 84.425 993.762 84.425C997.645 84.425 1001.62 84.698 1005.69 85.2441C1009.75 85.7902 1013.69 86.67 1017.52 87.8836C1021.34 89.0365 1024.95 90.5534 1028.35 92.4344C1031.75 94.3154 1034.69 96.6514 1037.18 99.4426C1039.73 102.173 1041.73 105.359 1043.18 108.999C1044.7 112.64 1045.46 116.796 1045.46 121.468Z" stroke="white" stroke-width="64" mask="url(#path-1-outside-1_727_163)"/>
</svg>
