<svg width="151" height="143" viewBox="0 0 151 143" fill="none" xmlns="http://www.w3.org/2000/svg">
<path d="M133.819 71.3824C133.819 76.8434 133.091 81.9706 131.635 86.7641C130.179 91.5575 128.146 95.987 125.537 100.052C122.988 104.118 119.894 107.789 116.253 111.065C112.612 114.281 108.608 117.012 104.239 119.257C99.931 121.502 95.2892 123.231 90.3137 124.445C85.3988 125.658 80.3323 126.265 75.1141 126.265C69.8958 126.265 64.8293 125.658 59.9144 124.445C54.9996 123.231 50.3578 121.502 45.9891 119.257C41.681 117.012 37.7066 114.281 34.066 111.065C30.4254 107.789 27.3005 104.118 24.6914 100.052C22.143 95.987 20.1406 91.5575 18.6844 86.7641C17.2281 81.9099 16.5 76.7827 16.5 71.3824C16.5 65.9822 17.2281 60.8853 18.6844 56.0918C20.1406 51.2376 22.143 46.7779 24.6914 42.7125C27.3005 38.6471 30.4254 35.0065 34.066 31.7906C37.7066 28.5141 41.681 25.7533 45.9891 23.5082C50.3578 21.2631 54.9996 19.5339 59.9144 18.3203C64.8293 17.1068 69.8958 16.5 75.1141 16.5C80.3323 16.5 85.3988 17.1068 90.3137 18.3203C95.2892 19.5339 99.931 21.2631 104.239 23.5082C108.608 25.7533 112.612 28.5141 116.253 31.7906C119.894 35.0065 122.988 38.6471 125.537 42.7125C128.146 46.7779 130.179 51.2376 131.635 56.0918C133.091 60.8853 133.819 65.9822 133.819 71.3824Z" fill="#0084FF"/>
<path d="M89.1536 72.325C89.1536 92.8976 74.3397 109.575 74.3397 109.575C74.3397 109.575 59.5259 92.8976 59.5259 72.325C59.5259 51.7524 74.3397 35.075 74.3397 35.075C74.3397 35.075 89.1536 51.7524 89.1536 72.325Z" fill="#12264B"/>
<path d="M133.819 71.3824C133.819 76.8434 133.091 81.9706 131.635 86.7641C130.179 91.5575 128.146 95.987 125.537 100.052C122.988 104.118 119.894 107.789 116.253 111.065C112.612 114.281 108.608 117.012 104.239 119.257C99.931 121.502 95.2892 123.231 90.3137 124.445C85.3988 125.658 80.3323 126.265 75.1141 126.265C69.8958 126.265 64.8293 125.658 59.9144 124.445C54.9996 123.231 50.3578 121.502 45.9891 119.257C41.681 117.012 37.7066 114.281 34.066 111.065C30.4254 107.789 27.3005 104.118 24.6914 100.052C22.143 95.987 20.1406 91.5575 18.6844 86.7641C17.2281 81.9099 16.5 76.7827 16.5 71.3824C16.5 65.9822 17.2281 60.8853 18.6844 56.0918C20.1406 51.2376 22.143 46.7779 24.6914 42.7125C27.3005 38.6471 30.4254 35.0065 34.066 31.7906C37.7066 28.5141 41.681 25.7533 45.9891 23.5082C50.3578 21.2631 54.9996 19.5339 59.9144 18.3203C64.8293 17.1068 69.8958 16.5 75.1141 16.5C80.3323 16.5 85.3988 17.1068 90.3137 18.3203C95.2892 19.5339 99.931 21.2631 104.239 23.5082C108.608 25.7533 112.612 28.5141 116.253 31.7906C119.894 35.0065 122.988 38.6471 125.537 42.7125C128.146 46.7779 130.179 51.2376 131.635 56.0918C133.091 60.8853 133.819 65.9822 133.819 71.3824Z" fill="#0084FF"/>
<path d="M89.1536 72.325C89.1536 92.8976 74.3397 109.575 74.3397 109.575C74.3397 109.575 59.5259 92.8976 59.5259 72.325C59.5259 51.7524 74.3397 35.075 74.3397 35.075C74.3397 35.075 89.1536 51.7524 89.1536 72.325Z" fill="#12264B"/>
<path d="M133.819 71.3824C133.819 76.8434 133.091 81.9706 131.635 86.7641C130.179 91.5575 128.146 95.987 125.537 100.052C122.988 104.118 119.894 107.789 116.253 111.065C112.612 114.281 108.608 117.012 104.239 119.257C99.931 121.502 95.2892 123.231 90.3137 124.445C85.3988 125.658 80.3323 126.265 75.1141 126.265C69.8958 126.265 64.8293 125.658 59.9144 124.445C54.9996 123.231 50.3578 121.502 45.9891 119.257C41.681 117.012 37.7066 114.281 34.066 111.065C30.4254 107.789 27.3005 104.118 24.6914 100.052C22.143 95.987 20.1406 91.5575 18.6844 86.7641C17.2281 81.9099 16.5 76.7827 16.5 71.3824C16.5 65.9822 17.2281 60.8853 18.6844 56.0918C20.1406 51.2376 22.143 46.7779 24.6914 42.7125C27.3005 38.6471 30.4254 35.0065 34.066 31.7906C37.7066 28.5141 41.681 25.7533 45.9891 23.5082C50.3578 21.2631 54.9996 19.5339 59.9144 18.3203C64.8293 17.1068 69.8958 16.5 75.1141 16.5C80.3323 16.5 85.3988 17.1068 90.3137 18.3203C95.2892 19.5339 99.931 21.2631 104.239 23.5082C108.608 25.7533 112.612 28.5141 116.253 31.7906C119.894 35.0065 122.988 38.6471 125.537 42.7125C128.146 46.7779 130.179 51.2376 131.635 56.0918C133.091 60.8853 133.819 65.9822 133.819 71.3824ZM89.1536 72.325C89.1536 92.8976 74.3397 109.575 74.3397 109.575C74.3397 109.575 59.5259 92.8976 59.5259 72.325C59.5259 51.7524 74.3397 35.075 74.3397 35.075C74.3397 35.075 89.1536 51.7524 89.1536 72.325Z" stroke="#12264B" stroke-width="33"/>
</svg>
