<svg width="239" height="43" viewBox="0 0 239 43" fill="none" xmlns="http://www.w3.org/2000/svg">
<path d="M29.8609 22.1829C29.8609 23.6803 29.6612 25.1064 29.2619 26.4611C28.8626 27.8017 28.2993 29.0424 27.572 30.1832C26.8589 31.3241 26.0033 32.358 25.005 33.285C24.0068 34.1977 22.9015 34.9749 21.6894 35.6167C20.4914 36.2584 19.2008 36.7575 17.8175 37.114C16.4485 37.4563 15.0366 37.6274 13.582 37.6274H-0.00148804V6.82387H13.582C15.0366 6.82387 16.4485 6.995 17.8175 7.33726C19.1866 7.67952 20.4701 8.17153 21.668 8.81327C22.8801 9.44075 23.9854 10.2108 24.9836 11.1235C25.9962 12.0362 26.8589 13.063 27.572 14.2039C28.2993 15.3305 28.8626 16.5712 29.2619 17.926C29.6612 19.2665 29.8609 20.6855 29.8609 22.1829ZM21.2401 22.1829C21.2401 20.5143 21.0334 18.9314 20.6198 17.434C20.2205 15.9223 19.593 14.5961 18.7374 13.4552C17.8817 12.3143 16.7907 11.4088 15.4645 10.7385C14.1525 10.0682 12.5766 9.7331 10.737 9.7331H8.49089V34.6326H10.737C12.5481 34.6326 14.1097 34.2975 15.4217 33.6273C16.748 32.9427 17.8389 32.03 18.6946 30.8892C19.5645 29.734 20.2062 28.4078 20.6198 26.9104C21.0334 25.413 21.2401 23.8371 21.2401 22.1829ZM55.2738 15.1023L51.2094 21.8406C51.0383 21.2702 50.8173 20.6284 50.5463 19.9154C50.2754 19.2023 49.9402 18.5392 49.5409 17.926C49.1416 17.2985 48.6639 16.778 48.1077 16.3644C47.5515 15.9366 46.9098 15.7227 46.1825 15.7227C45.5122 15.7227 44.9275 15.8938 44.4284 16.2361C43.9435 16.5783 43.5299 17.0276 43.1877 17.5837C42.8454 18.1256 42.5602 18.746 42.332 19.4448C42.1181 20.1293 41.947 20.8281 41.8186 21.5411C41.7045 22.2399 41.6261 22.9173 41.5833 23.5733C41.5405 24.2151 41.5192 24.7712 41.5192 25.2418V37.6274H34.2675V12.9204H37.0484L39.979 18.6747C40.3783 17.7477 40.8346 16.8992 41.348 16.1291C41.8614 15.3448 42.4532 14.6745 43.1235 14.1183C43.7938 13.5479 44.5496 13.1058 45.391 12.7921C46.2467 12.4783 47.2093 12.3215 48.2788 12.3215C48.835 12.3215 49.4554 12.3714 50.1399 12.4712C50.8244 12.5568 51.4947 12.7136 52.1507 12.9418C52.8067 13.1557 53.4128 13.4409 53.9689 13.7975C54.5251 14.154 54.9601 14.5889 55.2738 15.1023ZM82.7189 37.6274H75.4887V34.6754C74.633 35.8448 73.5991 36.7147 72.3869 37.2852C71.189 37.8414 69.8699 38.1194 68.4295 38.1194C66.5471 38.1194 64.8643 37.7843 63.3811 37.114C61.898 36.4438 60.643 35.5311 59.6163 34.376C58.5895 33.2066 57.8051 31.8375 57.2632 30.2688C56.7213 28.7001 56.4503 27.0173 56.4503 25.2204C56.4503 23.4236 56.7213 21.7408 57.2632 20.1721C57.8051 18.6034 58.5895 17.2415 59.6163 16.0863C60.643 14.9169 61.898 13.9971 63.3811 13.3268C64.8643 12.6566 66.5471 12.3215 68.4295 12.3215C69.385 12.3215 70.2906 12.4641 71.1462 12.7493C72.0161 13.0345 72.8076 13.4409 73.5206 13.9686C74.248 14.482 74.8826 15.1095 75.4245 15.851C75.9807 16.5783 76.4156 17.3912 76.7294 18.2896L79.9381 12.9204H82.7189V37.6274ZM75.4459 25.2204C75.4459 24.5787 75.4102 23.9013 75.3389 23.1883C75.2819 22.4752 75.1749 21.7693 75.018 21.0705C74.8612 20.3717 74.6401 19.7086 74.3549 19.0811C74.084 18.4394 73.7274 17.8761 73.2853 17.3912C72.8575 16.8921 72.337 16.4999 71.7238 16.2147C71.1106 15.9295 70.3975 15.7869 69.5846 15.7869C68.7718 15.7869 68.0659 15.9366 67.4669 16.2361C66.8679 16.5213 66.3545 16.9135 65.9267 17.4126C65.4989 17.8975 65.1424 18.4608 64.8571 19.1025C64.5862 19.7443 64.3723 20.4145 64.2154 21.1133C64.0585 21.8121 63.9444 22.518 63.8731 23.231C63.8161 23.9298 63.7876 24.593 63.7876 25.2204C63.7876 25.8479 63.8161 26.5182 63.8731 27.2312C63.9444 27.9443 64.0585 28.6502 64.2154 29.349C64.3723 30.0478 64.5862 30.718 64.8571 31.3598C65.1424 32.0015 65.4989 32.5719 65.9267 33.0711C66.3545 33.556 66.8679 33.9481 67.4669 34.2476C68.0659 34.5328 68.7718 34.6754 69.5846 34.6754C70.3262 34.6754 70.9822 34.5257 71.5526 34.2262C72.1373 33.9125 72.6436 33.4989 73.0714 32.9855C73.5135 32.4721 73.8843 31.8874 74.1838 31.2314C74.4833 30.5754 74.7257 29.898 74.9111 29.1992C75.0965 28.5005 75.232 27.8088 75.3175 27.1243C75.4031 26.4255 75.4459 25.7909 75.4459 25.2204ZM111.854 2.75951L107.768 9.51918C107.725 8.97727 107.626 8.35692 107.469 7.65813C107.312 6.94509 107.048 6.27482 106.677 5.64734C106.321 5.01986 105.822 4.49221 105.18 4.06438C104.552 3.62229 103.747 3.40125 102.763 3.40125C101.75 3.40125 100.937 3.6009 100.324 4.00021C99.7108 4.39951 99.2402 4.99847 98.9122 5.79708C98.5842 6.59569 98.3632 7.58683 98.2491 8.77048C98.135 9.95414 98.0779 11.3303 98.0779 12.899H105.565V15.7655H98.0779V37.6274H90.8263V15.7655H86.3341V12.899H90.8263C90.8263 10.6315 91.0687 8.68492 91.5536 7.05917C92.0384 5.43343 92.7729 4.10004 93.7569 3.05899C94.7409 2.00368 95.9745 1.23359 97.4576 0.748721C98.955 0.249589 100.702 2.26274e-05 102.698 2.26274e-05C103.896 2.26274e-05 104.966 0.0855881 105.907 0.256719C106.863 0.413589 107.704 0.627503 108.431 0.89846C109.173 1.15516 109.822 1.44751 110.378 1.77551C110.934 2.10351 111.426 2.43151 111.854 2.75951ZM119.427 37.6274H112.175V15.7869H107.683V12.9204H112.175V3.82908H119.427V12.9204H126.914V15.7869H119.427V37.6274ZM149.845 37.6274H128.924V34.761L141.866 15.7869H128.924V12.9204H149.845V15.7869L136.903 34.761H149.845V37.6274ZM179.814 25.2204C179.814 26.5039 179.643 27.709 179.301 28.8356C178.959 29.9622 178.481 31.0032 177.868 31.9587C177.269 32.9142 176.541 33.777 175.686 34.5471C174.83 35.3029 173.889 35.9447 172.862 36.4723C171.85 37 170.759 37.4064 169.589 37.6916C168.434 37.9768 167.243 38.1194 166.017 38.1194C164.79 38.1194 163.6 37.9768 162.445 37.6916C161.289 37.4064 160.198 37 159.172 36.4723C158.159 35.9447 157.225 35.3029 156.369 34.5471C155.514 33.777 154.779 32.9142 154.166 31.9587C153.567 31.0032 153.097 29.9622 152.754 28.8356C152.412 27.6947 152.241 26.4897 152.241 25.2204C152.241 23.9512 152.412 22.7533 152.754 21.6267C153.097 20.4858 153.567 19.4376 154.166 18.4822C154.779 17.5267 155.514 16.671 156.369 15.9152C157.225 15.1451 158.159 14.4962 159.172 13.9686C160.198 13.4409 161.289 13.0345 162.445 12.7493C163.6 12.4641 164.79 12.3215 166.017 12.3215C167.243 12.3215 168.434 12.4641 169.589 12.7493C170.759 13.0345 171.85 13.4409 172.862 13.9686C173.889 14.4962 174.83 15.1451 175.686 15.9152C176.541 16.671 177.269 17.5267 177.868 18.4822C178.481 19.4376 178.959 20.4858 179.301 21.6267C179.643 22.7533 179.814 23.9512 179.814 25.2204ZM172.456 25.2204C172.456 24.5359 172.413 23.8157 172.327 23.0599C172.256 22.2898 172.128 21.5411 171.942 20.8138C171.757 20.0723 171.5 19.3663 171.172 18.6961C170.859 18.0116 170.466 17.4197 169.996 16.9206C169.525 16.4072 168.962 16.0008 168.306 15.7013C167.65 15.3875 166.887 15.2307 166.017 15.2307C165.19 15.2307 164.455 15.3875 163.814 15.7013C163.172 16.015 162.609 16.4357 162.124 16.9634C161.653 17.4768 161.254 18.0757 160.926 18.7603C160.612 19.4448 160.355 20.1578 160.156 20.8994C159.956 21.6267 159.813 22.3683 159.728 23.1241C159.642 23.8657 159.6 24.5644 159.6 25.2204C159.6 25.8764 159.642 26.5824 159.728 27.3382C159.813 28.0798 159.956 28.8213 160.156 29.5629C160.355 30.3045 160.612 31.0175 160.926 31.702C161.254 32.3723 161.653 32.9713 162.124 33.4989C162.609 34.0123 163.172 34.4259 163.814 34.7396C164.455 35.0533 165.19 35.2102 166.017 35.2102C166.873 35.2102 167.628 35.0605 168.284 34.761C168.94 34.4473 169.504 34.0337 169.974 33.5203C170.459 33.0069 170.859 32.4151 171.172 31.7448C171.486 31.0746 171.736 30.3686 171.921 29.6271C172.121 28.8855 172.256 28.1368 172.327 27.381C172.413 26.6251 172.456 25.905 172.456 25.2204ZM209.655 23.4664C209.655 25.1349 209.449 26.8747 209.035 28.6858C208.636 30.497 208.072 32.2725 207.345 34.0123C206.618 35.7521 205.748 37.385 204.735 38.9109C203.723 40.4511 202.61 41.7774 201.398 42.8897L198.682 41.4137C199.067 40.7007 199.43 39.9021 199.773 39.0179C200.115 38.1337 200.421 37.1996 200.692 36.2156C200.978 35.2173 201.227 34.1906 201.441 33.1353C201.669 32.0799 201.855 31.0389 201.997 30.0121C202.154 28.9711 202.268 27.9657 202.339 26.9959C202.425 26.0119 202.468 25.0992 202.468 24.2578C202.468 23.7017 202.446 23.1098 202.404 22.4824C202.361 21.8406 202.268 21.206 202.126 20.5785C201.997 19.9368 201.819 19.3236 201.591 18.7389C201.363 18.1542 201.056 17.6408 200.671 17.1987C200.3 16.7566 199.844 16.4001 199.302 16.1291C198.774 15.8582 198.147 15.7227 197.419 15.7227C196.706 15.7227 196.072 15.8867 195.516 16.2147C194.959 16.5284 194.467 16.9491 194.04 17.4768C193.612 17.9902 193.241 18.582 192.927 19.2523C192.628 19.9225 192.378 20.6142 192.179 21.3272C191.993 22.026 191.858 22.7177 191.772 23.4022C191.687 24.0867 191.644 24.6999 191.644 25.2418V37.6274H184.392V12.9204H187.173L190.489 18.6747C190.888 17.7192 191.387 16.8493 191.986 16.0649C192.585 15.2806 193.262 14.6103 194.018 14.0542C194.774 13.498 195.608 13.0701 196.521 12.7707C197.448 12.4712 198.446 12.3215 199.516 12.3215C201.227 12.3215 202.717 12.5995 203.987 13.1557C205.256 13.7119 206.311 14.4891 207.153 15.4874C207.994 16.4714 208.621 17.6479 209.035 19.017C209.449 20.3717 209.655 21.8549 209.655 23.4664ZM220.372 25.905C221.257 26.1046 222.141 26.2615 223.025 26.3756C223.909 26.4897 224.8 26.5467 225.699 26.5467C226.64 26.5467 227.51 26.4611 228.309 26.29C229.121 26.1046 229.82 25.8051 230.405 25.3916C231.004 24.9638 231.475 24.4004 231.817 23.7017C232.159 23.0029 232.33 22.133 232.33 21.0919C232.33 20.2505 232.216 19.4804 231.988 18.7816C231.76 18.0829 231.417 17.4839 230.961 16.9848C230.519 16.4856 229.97 16.1006 229.314 15.8296C228.658 15.5444 227.895 15.4018 227.025 15.4018C226.212 15.4018 225.478 15.5515 224.822 15.851C224.18 16.1505 223.61 16.5569 223.111 17.0703C222.626 17.5695 222.205 18.1542 221.848 18.8244C221.506 19.4947 221.221 20.1935 220.993 20.9208C220.765 21.6481 220.601 22.3825 220.501 23.1241C220.401 23.8657 220.351 24.5644 220.351 25.2204C220.351 25.3345 220.351 25.4486 220.351 25.5627C220.351 25.6768 220.358 25.7909 220.372 25.905ZM238.191 21.0277C238.191 22.0403 238.027 22.9458 237.699 23.7444C237.371 24.5288 236.922 25.2204 236.352 25.8194C235.796 26.4184 235.147 26.9246 234.405 27.3382C233.664 27.7518 232.872 28.094 232.031 28.365C231.189 28.6217 230.319 28.8071 229.421 28.9212C228.537 29.0352 227.674 29.0923 226.833 29.0923C225.763 29.0923 224.708 29.021 223.667 28.8784C222.626 28.7215 221.599 28.4791 220.586 28.1511C220.743 29.0923 220.993 29.9907 221.335 30.8464C221.677 31.6878 222.134 32.4293 222.704 33.0711C223.275 33.6986 223.973 34.1977 224.8 34.5685C225.642 34.9393 226.633 35.1247 227.774 35.1247C228.53 35.1247 229.25 35.0106 229.934 34.7824C230.619 34.5542 231.246 34.2333 231.817 33.8198C232.387 33.4062 232.886 32.9142 233.314 32.3438C233.756 31.7733 234.113 31.1387 234.384 30.4399L237.507 31.5951C237.036 32.7217 236.387 33.6986 235.56 34.5257C234.747 35.3386 233.82 36.016 232.779 36.5579C231.753 37.0855 230.655 37.4777 229.485 37.7344C228.33 37.9911 227.182 38.1194 226.041 38.1194C224.159 38.1194 222.419 37.8057 220.822 37.1782C219.224 36.5365 217.848 35.6452 216.693 34.5043C215.538 33.3634 214.632 32.0015 213.976 30.4185C213.32 28.8356 212.992 27.1029 212.992 25.2204C212.992 23.338 213.32 21.6053 213.976 20.0223C214.632 18.4394 215.538 17.0775 216.693 15.9366C217.848 14.7957 219.224 13.9115 220.822 13.2841C222.419 12.6423 224.159 12.3215 226.041 12.3215C226.954 12.3215 227.888 12.3856 228.843 12.514C229.799 12.6423 230.726 12.8491 231.624 13.1343C232.523 13.4053 233.371 13.7618 234.17 14.2039C234.968 14.646 235.66 15.195 236.245 15.851C236.844 16.4928 237.314 17.2415 237.657 18.0971C238.013 18.9528 238.191 19.9296 238.191 21.0277Z" fill="white"/>
</svg>
