<svg width="345" height="335" viewBox="0 0 345 335" fill="none" xmlns="http://www.w3.org/2000/svg">
<path d="M11 128C61.6317 90.5528 121.377 46.9244 172.043 9.5C222.698 46.8333 279.857 92.7522 330.5 130.097C315.528 141.255 301.552 150.876 286.5 161.931C296.121 194.961 305.459 235.129 315 268.193C289.2 247.107 256.49 226.132 230.713 205C221.662 211.797 211.904 209.557 203.023 216.548C192.526 246.492 182.495 276.618 172.043 306.596C161.614 276.709 146.918 250.399 136.5 220.5C127.073 213.566 122.561 211.729 112.952 205C87.266 225.904 51.7087 252.119 26 273C35.9055 240.437 46.0376 201.54 56 169C40.9483 157.398 26.0745 139.556 11 128ZM76.8938 107.098C78.3056 135.892 94.4162 164.664 120.626 177.757C105.13 161.225 94.6781 139.171 94.9399 116.252C99.3234 113.838 103.627 111.254 108.022 108.851C111.563 120.863 117.95 132.169 127.241 140.64C139.162 151.752 155.489 157.707 171.724 157.661C187.22 157.684 202.739 152.367 214.671 142.427C225.134 133.843 232.432 121.74 236.007 108.749C240.379 111.299 244.808 113.77 249.215 116.286C249.237 139.194 239.025 161.396 223.267 177.78C249.556 164.777 265.826 135.812 267.01 106.961C250.706 94.1526 234.038 81.8106 217.381 69.48C216.606 77.1767 216.31 84.9075 215.468 92.5928C213.931 104.98 207.065 116.707 196.636 123.664C186.662 130.427 173.876 132.841 162.149 130.097C146.756 126.647 133.753 114.134 129.894 98.8093C127.412 89.1771 127.753 79.1464 126.774 69.3092C110.026 81.7309 93.2435 94.1298 76.8824 107.075L76.8938 107.098ZM32 42C36.0191 57.1201 41.2115 86.027 43.5 101.5C59.8839 89.5337 88.1503 69.628 104.5 57.6162C85.19 53.4036 51.6288 44.3454 32 42ZM243 57.6162C259.293 69.6508 287.128 86.8886 303.5 98.8093C305.902 83.3818 308.981 57.0973 313 42C293.394 44.3454 262.287 53.3808 243 57.6162ZM209 220.5C204.332 233.24 201.054 253.668 196.636 266.5C208.056 259.19 215.566 259.86 228.5 256C225.688 263.048 228.389 265.042 227 272.5C243.555 265.327 275.556 258.084 293.5 256C275.841 241.666 248.338 221.891 230.713 207.5C225.043 211.758 214.476 216.025 209 220.5ZM55 256C73.1372 258.175 113.942 277.179 130.679 284.5C129.359 277.031 123.381 266.07 120.626 259C133.583 262.928 140.557 269.611 152 277C148.004 264.772 142.857 239.217 138.849 227C138.53 226.078 133.411 221.978 132.5 221.5C126.591 217.47 118.838 211.553 112.952 207.5C95.4751 221.675 72.3972 241.734 55 256Z" fill="#E4E8C5"/>
<path d="M106.363 48.5108C128.343 32.3823 150.22 16.117 172.2 0C194.146 16.1398 216.069 32.3481 237.98 48.5336C263.256 42.6708 288.886 38.2908 314.687 35.6217C320.618 48.6933 326.481 61.7763 332.435 74.8478C332.755 75.8173 333.599 76.8895 333.005 77.9389C328.432 88.33 324.519 98.9948 321.029 109.785C328.751 115.58 336.598 121.214 344.309 127.054C333.017 135.495 321.576 143.742 310.273 152.171C307.147 167.512 305.117 183.07 303.726 198.674C303.634 199.917 303.418 201.229 303.805 202.45C312.554 232.562 321.428 262.652 330.074 292.798C319.318 284.175 308.676 275.404 298.011 266.667C265.081 269.119 232.95 280.309 205.073 297.863C205.928 301.022 206.693 304.216 207.56 307.364C194.534 314.516 182.477 323.504 172.234 334.294C161.855 323.63 149.912 314.47 136.795 307.421C137.639 304.239 138.438 301.045 139.316 297.886C111.188 280.195 78.8058 268.994 45.6136 266.564C34.5495 275.564 23.5881 284.677 12.4328 293.551C21.7289 263.04 31.1277 232.551 40.4466 202.05C41.0739 200.1 40.515 198.047 40.4123 196.062C39.0778 181.724 37.0703 167.455 34.3784 153.323C22.9494 144.506 11.4177 135.848 0 127.043C7.79047 121.305 15.5923 115.58 23.3372 109.797C19.7556 98.6983 15.695 87.7597 10.9614 77.0948C17.1436 63.2705 23.4627 49.5031 29.6334 35.6559C55.4572 38.2452 81.087 42.705 106.363 48.5108ZM19.8925 127.134C34.9944 138.711 50.0962 150.289 65.1639 161.9C55.1948 194.499 45.1573 227.076 35.2225 259.697C60.9778 238.778 86.6305 217.734 112.352 196.792C121.978 203.522 131.947 209.841 141.392 216.787C151.817 246.74 161.752 276.887 172.212 306.828C182.682 276.807 192.731 246.615 203.248 216.616C212.145 209.613 221.418 203.02 230.486 196.21C256.298 217.38 282.202 238.448 308.06 259.572C298.502 226.448 288.795 193.37 279.157 160.269C294.236 149.194 309.36 138.175 324.36 126.986C273.625 89.5733 222.924 52.0923 172.177 14.7027C121.42 52.195 70.6275 89.6075 19.8925 127.123V127.134ZM36.3289 47.5641C40.3553 62.7116 43.5034 78.0758 45.7961 93.5769C62.2097 81.5889 78.5092 69.4412 94.8886 57.4077C75.5436 53.1873 55.9933 49.9138 36.3289 47.5641ZM249.523 57.3963C265.845 69.4527 282.122 81.5661 298.524 93.5084C300.931 78.053 303.999 62.6888 308.026 47.5641C288.384 49.9138 268.845 53.1531 249.523 57.3963ZM213.114 223.711C208.438 236.474 204.24 249.409 199.815 262.264C211.255 254.941 224.19 250.333 237.147 246.466C234.33 253.527 232.38 260.895 230.988 268.366C247.573 261.18 265.138 256.207 283.115 254.12C265.423 239.759 247.801 225.319 230.144 210.902C224.464 215.167 218.601 219.228 213.114 223.711ZM60.6128 253.994C78.783 256.173 96.5995 261.032 113.367 268.366C112.044 260.884 110.013 253.55 107.253 246.466C120.233 250.401 133.225 254.941 144.688 262.344C140.685 250.093 136.328 237.957 132.313 225.718C131.993 224.794 131.685 223.802 130.773 223.323C124.853 219.285 118.91 215.293 113.013 211.232C95.5045 225.433 78.0416 239.702 60.6128 253.994ZM76.8895 106.979C78.3039 135.826 94.4437 164.649 120.701 177.766C105.177 161.205 94.7061 139.111 94.9684 116.15C99.3598 113.732 103.671 111.142 108.074 108.736C111.622 120.769 118.02 132.096 127.328 140.582C139.27 151.715 155.627 157.68 171.892 157.634C187.416 157.657 202.963 152.33 214.917 142.373C225.399 133.772 232.71 121.648 236.292 108.633C240.672 111.188 245.109 113.663 249.523 116.184C249.546 139.133 239.315 161.376 223.528 177.789C249.865 164.763 266.165 135.746 267.351 106.842C251.017 94.0103 234.319 81.6459 217.631 69.293C216.856 77.0036 216.559 84.7484 215.715 92.4477C214.175 104.858 207.297 116.606 196.849 123.575C186.857 130.351 174.048 132.769 162.3 130.02C146.878 126.564 133.852 114.028 129.986 98.6755C127.499 89.0258 127.841 78.9769 126.86 69.1219C110.082 81.5661 93.2689 93.9875 76.8781 106.956L76.8895 106.979Z" fill="#AE2C2C"/>
</svg>
