<svg width="350" height="358" viewBox="0 0 350 358" fill="none" xmlns="http://www.w3.org/2000/svg">
<path d="M251.614 186.61C274.617 179.491 299.1 177.395 323.006 180.203C306.724 195.654 294.987 215.956 289.956 237.932C265.644 229.508 239.353 227.122 213.888 230.444C195.588 232.79 177.956 238.894 161.581 247.331C185.016 219.054 216.638 197.539 251.614 186.61ZM142.006 263C122.017 272.4 98.2384 277.49 76.5063 282.5C59.0709 286.653 53.7855 284.883 37.136 277.5C59.5231 292.291 79.8666 313.168 106.341 311.915C130.195 311.256 153.656 306.51 177.17 302.845C206.644 298.68 238.082 309.437 257.941 331.941C263.535 318.757 271.997 306.985 281.9 296.742C293.873 284.547 309.56 265.713 324.506 257.5C289.976 243.302 251.3 235.597 213.888 240C189.758 242.716 163.752 252.427 142.006 263ZM48.1297 305.88C65.0804 320.896 86.8181 342.288 108 350C117.432 336.342 140.075 315.447 155.506 309C116.719 315.776 63.6002 306.816 30 286C35.0564 293.448 41.4883 299.869 48.1297 305.88Z" fill="#372C64"/>
<path d="M227.231 0.0356648C247.619 6.2413 265.213 20.7924 275.628 39.3142C287.789 60.6535 289.905 86.0823 287.599 110.108C279.658 119.571 268.709 125.908 257.902 131.602C241.211 140.007 223.379 145.951 205.297 150.504C226.696 153.322 248.796 152.739 269.624 146.736C279.23 143.93 288.467 139.734 296.693 134.004C297.371 145.999 295.053 158.481 288.609 168.741C302.531 169.383 316.511 170.477 330.159 173.532C337.066 175.137 344.08 177.134 350 181.188C337.399 185.337 326.866 194.17 318.508 204.251C309.818 214.76 303.22 226.862 298.156 239.487C313.896 244.504 329.814 251.911 340.382 265.071C325.653 272.727 311.875 282.202 299.202 292.901C282.237 307.357 267.223 324.547 257.546 344.769C246.882 329.636 231.106 317.878 213.167 312.956C197.368 308.534 180.296 309.759 164.901 315.168C144.227 322.348 127.525 338.433 117.134 357.442C79.0683 348.99 44.4737 325.273 23.3008 292.461C11.6385 274.51 4.18464 254.098 0 233.175C8.59516 244.35 19.0686 254.157 31.2897 261.267C49.3003 272.085 71.0319 276.757 91.86 273.821C113.247 270.111 130.604 255.608 145.488 240.676C158.672 228.027 170.215 213.452 185.372 203.026C180.522 188.333 168.337 176.266 153.417 171.986C139.971 167.683 124.659 170.381 113.425 178.881C121.83 182.721 129.7 189.01 133.088 197.855C136.631 206.843 134.443 217.34 128.773 224.948C121.818 234.792 109.645 239.904 97.8041 239.927C90.6236 239.749 83.2173 238.786 76.7858 235.386C66.7522 230.036 59.857 220.086 56.243 209.505C49.9898 191.21 52.4507 170.572 61.3074 153.548C69.6648 137.499 84.0732 125.48 99.6586 116.766C116.005 107.671 133.908 101.513 152.181 97.6971C167.849 94.7964 183.554 91.2894 198.235 84.9411C209.232 80.1977 220.276 73.4095 225.923 62.413C232.652 49.0982 235.327 33.8813 234.459 19.0449C233.852 12.2329 232.259 4.99304 227.231 0V0.0356648ZM250.912 188.642C219.171 198.485 190.472 217.887 169.205 243.399C184.065 235.79 200.066 230.298 216.674 228.17C239.773 225.174 263.644 227.326 285.709 234.922C290.274 215.105 300.914 196.809 315.703 182.864C294.019 180.332 271.8 182.222 250.912 188.642ZM153.203 263.24C135.062 271.716 117.741 282.57 98.0181 287.088C82.1949 290.833 64.9214 291.189 49.8115 284.532C70.1284 297.87 95.046 302.768 119.072 301.639C140.72 301.044 162.012 296.765 183.351 293.46C210.1 289.703 238.632 299.404 256.654 319.697C261.73 307.809 269.41 297.193 278.397 287.956C289.263 276.959 301.782 267.603 315.346 260.197C284.009 247.393 249.771 239.701 215.818 243.672C193.92 246.121 172.937 253.706 153.203 263.24ZM56.2668 311.625C71.6501 325.166 89.9341 335.152 109.157 342.106C117.717 329.79 129.011 318.948 143.015 313.135C107.814 319.245 70.3067 312.469 39.8135 293.698C44.4024 300.414 50.2395 306.204 56.2668 311.625Z" fill="#AF272C"/>
</svg>
