<svg width="309" height="358" viewBox="0 0 309 358" fill="none" xmlns="http://www.w3.org/2000/svg">
<path d="M99.5 47.812C132 32 181 32.4997 211.588 47.8121C193.357 49.3538 169.943 58.6872 154.439 68.5004C138.923 58.626 114.207 51.0298 95.9524 49.5003L99.5 47.812ZM80.6125 57.1234C68.4344 74.7798 62.5611 97.9404 62.5 119.5C76.2798 114.202 94.2543 112.234 109 113.874C112.57 111.353 118.137 108.46 121.744 106C122.942 104.593 129.256 100.956 125.5 100C131.467 88.7434 139.608 78.4139 149.5 70.4361C130.915 59.5583 105.482 53.5685 84.1583 55.0001L80.6125 57.1234ZM159.5 70.4361C169.061 78.2304 180.619 93.1104 186.5 104C195.303 90.0515 208.782 68.9736 217.5 55.0001C199.979 55.563 174.735 61.6017 159.5 70.4361ZM15.8218 159.905C26.0069 145.222 42.1905 133.394 58 125C57.1197 106.793 61.8948 82.4575 69.5 66.0001C42.2828 87.6333 20.8838 122.83 15.8218 157.213V159.905ZM125.5 109C134.279 122.668 145.697 139.808 154.439 153.5C163.328 139.87 175.172 122.656 184 109C178.033 96.4463 165.651 80.674 154.439 72.5004C143.3 80.7719 131.357 96.4096 125.5 109ZM252.817 79.7843C251.521 82.0235 248.284 83.2731 247 85.5C244.071 97.0385 251.867 111.082 251.5 123C267.163 131.223 284.668 149.233 295 163.5C291.5 135 277.5 98.0281 252.817 79.7843ZM230.5 116C234.278 117.052 241.332 119.593 245 121C245.024 114.454 243.71 101.924 242.5 95.5C239.297 100.713 233.618 110.739 230.5 116ZM62.5 125C63.6616 136.245 69.8283 155.638 75.2815 165.5C77.1645 157.865 82.2939 145.669 86.5 139C89.838 132.454 97.5101 122.818 102.548 117.52C91.4945 118.034 72.6606 120.546 62.5 125ZM216 134C221.392 141.917 231.273 156.201 233.584 165.5C239.355 155.564 243.606 137.879 245 126.5C239.999 124.285 232.307 121.248 227 120C224.75 123.854 218.25 130.158 216 134ZM14 178.846C14.1345 179.238 14.3913 180.033 14.5258 180.425C23.7816 199.146 38.0015 215.726 56.2564 226.126C58.5306 211.125 66.258 197.09 75.2815 184.879C74.609 180.988 76.333 174.769 75.2815 171C66.6737 158.936 60.1642 143.659 58 129C39.4517 139.78 23.0602 159.501 14 178.846ZM249.5 132C247.25 146.952 241.511 161.837 232.5 174C232.745 177.842 233.804 183.158 233.584 187C242.644 199.028 249.177 214.182 251.5 229C270.183 218.22 288.256 198.357 297.5 179C288.134 159.728 270.183 140.755 251.5 130L249.5 132ZM75.2815 193.5C69.596 203.497 66.3803 219.176 65.072 230.58C70.0484 232.856 75.2938 234.434 80.6125 235.682C82.8622 231.865 86.2258 227.818 88.5 224C83.1568 216.022 77.5924 202.824 75.2815 193.5ZM233.584 193.5C229.855 208.171 216.625 228.22 206.024 239C217.065 238.78 236.839 237.856 247 233.5C245.765 222.28 238.939 203.423 233.584 193.5ZM251.5 235.5C252.197 253.744 246.703 276.53 239 293C268 276.5 295 230.629 295 195.5C284.876 210.208 266.5 225.5 251.5 235.5ZM16.1886 201.263C20.7982 230.274 35.0548 257.597 56.0118 278.153C57.2957 275.939 60.7162 273.715 62 271.5C58.7354 260.06 55.7062 245.43 56.2564 233.5C40.6425 225.229 25.9457 212.471 15.8218 198.02L16.1886 201.263ZM125 250.427C130.93 263.005 143.276 280.753 154.439 289C165.602 280.79 177.131 263.03 183 250.427C174.27 236.71 163.12 219.241 154.439 205.5C145.611 219.168 133.865 236.759 125 250.427ZM201.5 241.5C197.734 243.801 192.082 247.869 188.5 250.427C182.191 263.433 170.347 280.019 159 289C177.622 299.817 204.14 307.627 225.5 306C237.592 288.344 247.061 260.535 247 239C235.5 239 216.27 242.467 201.5 241.5ZM65.1209 239C65.2065 245.583 65.2187 253.559 66.4903 260.02C69.6082 254.734 74.3699 246.774 77.5 241.5C73.673 240.46 68.8012 240.456 65.1209 239ZM122 256C113.16 269.863 99.779 289.612 91 303.5C108.533 303.219 136.699 295.81 151.922 287C142.287 279.304 127.93 266.829 122 256ZM96.5 310.138C129.146 323.206 183.378 323.255 216 310.138C197.794 308.67 171.492 299.764 156 290C140.655 299.862 114.535 308.364 96.5 310.138Z" fill="#2AA14C"/>
<path d="M248.814 57.3517C274.514 77.0504 293.737 105.08 302.751 136.183C313.765 173.287 310.13 214.563 292.554 249.069C280.015 274.134 260.451 295.528 236.788 310.507C246.802 326.278 256.926 341.951 266.94 357.723L42.0458 357.71C80.0282 298.785 116.962 239.214 154.542 180.044C166.178 198.755 177.851 217.429 189.267 236.274C198.525 230.566 206.6 222.65 211.71 212.977C218.785 201.707 221.761 188.07 220.809 174.861C219.687 160.199 213.54 146.075 203.806 135.085C218.773 109.154 233.861 83.2954 248.814 57.3517ZM154.468 292.967C139.161 302.798 121.279 307.958 103.288 309.726C135.855 322.753 173.46 322.716 206.002 309.641C187.84 308.177 169.922 302.7 154.468 292.967ZM244.143 240.165C230.397 245.776 215.394 247.508 200.66 246.544C196.903 248.837 193.036 251.033 189.462 253.582C183.169 266.548 174.094 278.172 162.775 287.125C181.351 297.907 203.343 301.92 224.652 300.298C236.715 282.697 244.204 261.632 244.143 240.165ZM122.524 259.144C113.705 272.963 104.825 286.722 96.0676 300.566C113.559 300.285 131.074 295.87 146.26 287.088C136.648 279.416 128.439 269.939 122.524 259.144ZM292.761 200.548C282.662 215.209 269.16 227.565 253.413 235.932C254.108 254.119 249.766 272.244 242.082 288.661C269.172 266.962 287.748 234.92 292.761 200.548ZM154.542 209.123C145.735 222.747 137.099 236.494 128.256 250.118C134.172 262.657 143.381 273.537 154.517 281.746C165.653 273.561 174.874 262.693 180.729 250.13C172.02 236.457 163.202 222.82 154.542 209.123ZM233.495 198.45C229.774 213.075 222.127 226.687 211.552 237.433C222.566 237.213 233.482 234.725 243.618 230.383C242.386 219.198 238.837 208.342 233.495 198.45ZM252.413 131.853C250.168 146.758 244.436 161.163 235.446 173.287C235.69 177.117 235.763 180.947 235.544 184.777C244.582 196.767 250.107 211.16 252.425 225.931C271.062 215.185 285.541 198.133 294.762 178.837C285.419 159.626 271.038 142.562 252.4 131.841L252.413 131.853ZM228.128 122.376C225.884 126.218 223.664 130.072 221.419 133.902C226.798 141.794 230.799 150.612 233.104 159.882C238.861 149.978 242.228 138.805 243.618 127.462C238.63 125.266 233.421 123.62 228.128 122.376ZM252.681 80.0143C251.388 82.2464 250.083 84.4785 248.802 86.6984C252.218 98.0907 253.791 110.007 253.425 121.888C269.05 130.084 282.174 142.452 292.481 156.674C287.626 127.779 273.563 100.579 252.681 80.0143ZM242.216 98.2127C239.02 103.409 236.08 108.763 232.97 114.008C236.739 115.057 240.484 116.24 244.143 117.643C244.167 111.117 243.423 104.616 242.216 98.2127ZM154.224 38.3483L157.749 38.3971C174.691 39.1777 190.292 41.7148 206.112 48.1306C187.926 49.6674 169.971 55.0586 154.505 64.8409C139.027 54.9976 120.999 49.6552 102.788 48.1306C114.815 43.5444 127.39 40.3975 140.197 39.068C146.455 38.4215 147.943 38.5191 154.224 38.3483ZM212.979 57.1078C204.282 71.0493 195.268 84.7956 186.486 98.6884C180.619 87.8328 172.276 78.4653 162.738 70.6956C177.948 61.8769 195.488 57.6689 212.967 57.1078H212.979ZM89.8226 57.1932C92.0303 57.2054 94.238 57.2054 96.4335 57.1932C99.1048 57.3639 101.776 57.4371 104.447 57.6932C119.084 59.1081 133.452 63.3162 146.199 70.72C136.319 78.6848 127.878 88.4792 121.926 99.713C121.036 101.299 120.462 103.104 119.267 104.507C115.669 106.958 111.79 108.983 108.228 111.496C93.5184 109.873 78.5523 112.349 64.8059 117.631C64.8669 96.1391 72.2707 75.0378 84.4314 57.4249C86.2244 57.3395 88.0296 57.2054 89.8226 57.1932ZM154.456 76.0746C165.641 84.2346 174.801 95.1634 180.754 107.678C171.947 121.302 163.336 135.049 154.456 148.636C145.735 134.988 137.038 121.327 128.281 107.714C134.123 95.1512 143.344 84.3078 154.456 76.0746ZM66.8917 69.2319C59.305 85.6251 54.792 103.689 55.6702 121.839C39.899 130.194 26.4088 142.586 16.2607 157.223C21.3104 122.937 39.7527 90.7967 66.8917 69.2319ZM97.5679 120.241C92.5426 125.522 87.7979 131.17 84.4802 137.695C80.2843 144.343 77.4545 151.747 75.5762 159.358C70.1362 149.515 66.5989 138.61 65.4402 127.413C75.5762 122.973 86.5415 120.753 97.5679 120.241ZM56.5972 131.853C58.7561 146.465 64.4034 160.541 72.9903 172.567C74.0393 176.324 72.9781 180.459 73.649 184.35C64.6596 196.535 58.8659 210.952 56.5972 225.894C38.3866 215.526 24.2011 198.999 14.9678 180.337C14.8336 179.947 14.5774 179.154 14.4433 178.764C23.4815 159.48 38.0938 142.599 56.5972 131.853ZM75.8811 197.877C78.1986 207.171 82.2359 215.99 87.5661 223.942C85.2974 227.748 83.1385 231.602 80.882 235.42C75.5884 234.164 70.3435 232.59 65.3792 230.334C66.6843 218.966 70.1971 207.842 75.8689 197.877H75.8811ZM64.7937 240.128C68.4651 241.592 72.2341 242.787 76.0519 243.812C72.9293 249.069 69.9166 254.399 66.8063 259.668C65.5378 253.228 64.8791 246.678 64.7937 240.116V240.128ZM16.6266 201.109C26.726 215.514 40.0698 227.711 55.6336 235.969C55.0847 247.849 56.9143 259.742 60.171 271.158C58.9024 273.366 57.6217 275.561 56.341 277.769C35.4348 257.278 21.2128 230.041 16.6144 201.121L16.6266 201.109ZM154.493 0H41.997C52.0598 15.7711 62.1591 31.5422 72.2463 47.3011C37.2034 69.2319 11.6379 105.738 3.29494 146.258C-2.84031 175.409 -0.388649 206.342 10.4913 234.091C20.5907 260.168 37.9597 283.429 60.171 300.432C75.198 274.537 90.1885 248.605 105.252 222.735C93.4696 209.537 87.0172 191.668 88.1272 173.982C89.4933 152.808 101.593 132.621 119.682 121.497C131.208 140.33 142.808 159.126 154.554 177.837C191.938 118.497 229.116 59.0228 266.988 0.0121979L154.493 0Z" fill="#372C64"/>
</svg>
