<svg width="356" height="380" viewBox="0 0 356 380" fill="none" xmlns="http://www.w3.org/2000/svg">
<path d="M91.5 129.5C111.124 99.0869 135.876 64.9131 155.5 34.5C155.525 59.4803 158.487 97.0496 158.5 122.03C153.842 128.237 150.684 132.159 146 138.353C157.729 163.702 164.606 176.728 176.5 202C188.381 176.855 194.386 163.562 206 138.303C202.04 131.601 198.006 128.453 193.5 122.03C193.462 97.0623 193.475 53.4677 193.5 28.5C213.2 58.9004 244.5 102.587 264.174 133C265.824 135.399 268.918 142.969 271 145C248.673 179.475 230.739 219.235 217.5 258C205.162 294.747 194 335.326 185 373C182.271 372.987 163.032 378.013 166.5 373C156.257 329.944 147.719 285.121 132.5 243.5C120.2 210.307 102.895 172.202 83.5 142.5C85.569 140.456 89.888 131.962 91.5 129.5Z" fill="#E3E8C6"/>
<path d="M185.238 0C212.842 42.7113 240.382 85.4736 267.973 128.198C271.782 132.822 276.406 136.732 280.52 141.101C263.476 164.234 250.802 190.258 239.567 216.614C268.865 199.901 291.284 171.966 301.971 140.044C315.283 101.536 311.805 57.5641 292.341 21.7314C291.45 20.1009 290.558 18.4577 289.755 16.7763C318.021 38.9917 338.708 70.4934 348.848 104.925C360.083 143.203 358.058 185.252 342.938 222.193C329.588 255.262 305.907 284.024 276.125 303.629C254.139 318.278 228.79 327.704 202.651 331.436C198.473 347.486 194.664 363.626 191.021 379.791C181.277 379.791 171.532 379.765 161.787 379.803C157.927 363.447 154.246 347.066 149.928 330.825C101.153 323.386 56.3144 294.304 29.3221 253.032C3.6673 214.614 -5.64435 165.941 3.33611 120.695C9.75618 87.4353 26.0866 56.1756 49.6269 31.8201C54.926 26.572 60.1104 21.069 66.2885 16.8399C54.875 36.8135 47.7034 59.2965 46.4423 82.3145C44.8118 107.192 49.423 132.478 60.1104 155.024C71.3455 179.151 89.6249 199.914 112.184 214.066C101.179 188.526 88.5294 163.546 72.3137 140.898C77.5109 135.357 83.8163 130.682 87.5613 123.943C108.707 91.1039 129.903 58.3029 151.061 25.4765C156.654 17.0183 161.876 8.30533 167.71 0C167.901 41.3101 167.736 82.6329 167.787 123.943C163.851 129.319 159.813 134.605 155.94 140.006C162.73 154.477 169.519 168.96 176.36 183.405C183.302 168.985 190.028 154.464 196.817 139.98C192.957 134.771 189.098 129.561 185.238 124.351C185.238 82.9005 185.2 41.463 185.251 0.0127388L185.238 0ZM95.459 135.993C93.8413 138.465 91.5739 140.401 89.4975 142.464C108.949 172.272 123.598 204.946 135.954 238.243C151.214 280.012 161.978 323.246 172.258 366.454C174.984 366.454 177.71 366.454 180.449 366.466C189.48 328.659 198.881 290.839 211.262 253.962C224.561 215.06 240.879 176.909 263.285 142.299C261.183 140.261 258.903 138.363 257.247 135.955C237.503 105.434 217.861 74.8371 198.091 44.3291C198.066 69.3852 198.053 94.4413 198.091 119.497C202.613 125.943 207.938 132.006 211.912 138.719C200.256 164.056 188.27 189.265 176.347 214.499C164.411 189.137 152.399 163.801 140.616 138.363C145.316 132.159 149.89 125.854 154.564 119.625C154.552 94.5559 154.59 69.4871 154.552 44.4182C134.846 74.939 115.152 105.485 95.459 136.006V135.993Z" fill="#191617"/>
</svg>
