<svg width="335" height="328" viewBox="0 0 335 328" fill="none" xmlns="http://www.w3.org/2000/svg">
<path d="M53.4155 37.7253C61.377 30.5394 69.8975 23.958 79.0111 18.2891C81.2125 32.467 88.9003 45.5158 99.4967 55.0742C110.892 64.6897 126.176 68.0317 140.742 68.5222C140.765 71.6703 140.719 74.807 140.548 77.9438C121.967 81.5253 101.63 80.2136 85.1134 70.3016C72.0533 62.34 60.8181 51.1505 53.4041 37.7367L53.4155 37.7253ZM256.105 18.6883C253.538 32.9689 245.885 46.2344 234.877 55.6673C223.483 64.8494 208.529 68.0203 194.214 68.545C194.18 71.6703 194.363 74.7956 194.522 77.9095C211.757 81.2744 230.349 80.3733 246.227 72.3661C260.907 64.6212 273.168 52.5192 281.518 38.2044C273.716 30.8816 265.195 24.3344 256.105 18.6883ZM16.4934 87.4452C31.4128 100.414 49.7655 109.482 69.2131 113.098C93.0636 118.082 118.078 113.6 140.16 103.882C140.126 100.22 140.092 96.5587 140.434 92.9202C119.595 97.9389 96.7478 98.8172 76.7641 90.0572C60.1566 83.2591 45.8075 70.7008 37.4695 54.732C29.2342 64.7695 22.1509 75.7538 16.4934 87.4452ZM296.779 55.1997C295.981 58.7242 293.506 61.4959 291.544 64.4273C280.696 79.073 264.477 89.3158 246.968 94.0038C229.859 98.2355 211.814 97.072 194.819 92.9202C194.99 96.5816 194.876 100.254 195.024 103.916C206.738 109.037 219.137 112.653 231.843 114.273C262.709 118.265 294.897 108.079 318.303 87.6619C312.702 76.5978 306.189 65.9558 298.376 56.2833C297.965 55.77 297.475 55.2681 296.791 55.1883L296.779 55.1997ZM6.68406 112.345C3.14813 124.059 0.901094 136.161 0 148.366C27.7514 158.586 58.4913 162.167 87.4745 155.369C106.044 150.944 123.815 142.937 139.327 131.815C139.715 127.618 139.601 123.375 139.715 119.155C120.678 128.987 99.4625 134.986 77.9617 135.169C52.617 134.872 27.5803 126.603 6.67266 112.356L6.68406 112.345ZM256.663 135.158C235.3 134.884 214.232 128.895 195.321 119.132C195.526 123.398 195.72 127.664 195.697 131.93C218.441 147.647 245.371 157.902 273.157 158.768C294.042 159.419 315.029 155.814 334.58 148.48C333.644 136.344 331.488 124.276 327.93 112.619C307.033 126.808 281.963 134.964 256.663 135.158ZM70.2283 179.938C46.9823 184.17 21.9913 184.33 0.0798438 174.486C0.935313 186.577 3.31922 198.519 6.77531 210.119C12.2617 211.055 17.7823 211.671 23.3486 211.83C39.7394 212.845 56.0389 209.116 71.2092 203.07C95.2194 193.375 118.488 181.239 138.632 164.814C138.985 160.263 138.757 155.7 138.985 151.149C118.169 164.939 94.9342 175.615 70.2169 179.95L70.2283 179.938ZM196.016 151.103C196.37 155.666 196.085 160.251 196.553 164.791C208.7 174.771 222.068 183.246 236.064 190.387C251.211 197.983 266.735 205.215 283.263 209.253C297.783 212.777 312.953 212.526 327.656 210.302C331.272 198.747 333.473 186.748 334.454 174.692C320.219 181.102 304.399 183.087 288.909 182.619C271.4 181.969 253.994 178.501 237.524 172.547C222.947 166.947 208.997 159.784 196.016 151.103ZM47.6325 233.012C37.8003 235.761 27.5119 237.54 17.3033 236.365C21.8087 245.285 27.0784 253.805 33.0895 261.801C57.248 294.126 93.4286 317.27 132.997 325.3C138.597 326.315 144.232 327.752 149.969 327.387C133.978 325.254 118.522 319.118 105.234 310.004C92.288 300.959 80.8589 287.978 77.9503 272.033C75.7831 260.843 80.0719 249.722 85.4442 240.095C93.9875 224.788 105.839 211.705 118.055 199.283C95.7897 212.766 72.8175 225.826 47.6325 233.012ZM217.095 199.283C223.939 206.344 230.783 213.439 236.839 221.206C244.961 231.677 252.648 242.924 256.333 255.801C259.39 266.033 257.154 277.222 251.987 286.382C244.539 299.75 232.174 309.799 218.692 316.699C208.552 322.117 197.408 325.186 186.241 327.649C207.982 325.482 229.163 318.502 248.303 308.008C277.731 291.777 302.117 266.512 317.174 236.456C300.27 237.973 283.719 232.487 268.229 226.305C250.322 219.016 233.566 209.31 217.084 199.295L217.095 199.283Z" fill="#2F322F"/>
<path d="M98.1179 14.4107C141.12 -4.92288 192.242 -4.75179 235.198 14.616C237.103 26.4215 234.103 39.2535 225.925 48.1846C217.564 57.4123 205.405 62.0546 193.44 64.4043C199.006 59.9445 203.945 54.2984 205.953 47.3177C207.413 41.7629 208.759 35.8773 207.435 30.1513C206.397 25.3265 202.656 21.5624 198.333 19.4523C190.486 15.6198 181.612 14.8099 173.023 14.4221C162.974 14.2054 152.788 14.2054 142.956 16.5551C136.568 18.1292 129.713 21.1746 126.748 27.4481C124.147 33.5618 125.584 40.3827 127.135 46.5649C129.006 53.8649 134.093 59.8076 139.899 64.3929C127.432 61.9748 114.668 57.0245 106.365 46.9984C98.8936 38.0787 96.2359 25.7599 98.1293 14.3993L98.1179 14.4107ZM143.435 27.6762C140.88 28.5088 137.949 29.5012 136.58 31.9991C135.656 35.3868 136.454 38.9227 137.059 42.3104C137.777 45.3217 138.12 48.8918 140.891 50.8309C145.431 54.3668 151.214 58.4046 150.94 64.8834C150.667 93.764 149.651 122.656 149.104 151.537C155.423 145.092 158.354 136.264 160.624 127.732C164.365 113.041 165.517 97.8817 166.533 82.814C168.175 99.7523 168.996 116.987 174.255 133.309C176.331 139.959 179.239 146.552 184.224 151.559C183.562 125.873 182.923 100.186 182.41 74.4988C182.342 70.4496 182.034 66.3548 182.536 62.3284C183.699 56.956 188.661 53.922 192.562 50.637C194.98 48.8804 195.379 45.7437 196.052 43.0404C196.725 39.4702 197.603 35.729 196.714 32.1246C195.607 29.8548 193.052 28.8396 190.817 28.0184C182.821 25.452 174.3 25.2238 165.974 25.2809C158.411 25.2238 150.724 25.6002 143.412 27.6762H143.435ZM153.587 173.893C154.488 179.425 157.727 184.147 160.191 189.075C157.602 188.31 155.092 187.284 152.765 185.927C144.245 193.979 136.192 202.5 128.23 211.112C115.969 224.639 102.966 237.973 94.9926 254.626C91.6848 261.698 88.8104 269.637 90.4986 277.53C92.335 286.37 97.6389 294.092 103.947 300.377C115.877 311.954 131.949 318.353 148.18 320.931C140.663 314.669 133.842 307.426 128.972 298.894C122.208 287.602 119.345 273.777 122.265 260.831C125.721 244.954 135.622 231.415 146.48 219.712C157.248 208.591 167.981 197.196 175.909 183.794C178.121 179.573 180.733 174.805 179.353 169.889C177.825 163.787 171.38 159.669 165.198 160.491C158.594 160.992 153.028 167.22 153.609 173.881L153.587 173.893ZM166.396 215.241C158.195 224.81 150.016 234.962 145.979 247.087C143.629 255.197 142.146 263.865 143.823 272.26C145.249 279.56 149.857 286.062 156.073 290.088C161.263 293.385 168.027 293.841 173.684 291.503C181.874 288.184 187.828 280.29 189.231 271.61C190.908 261.436 188.512 251.056 184.612 241.646C194.615 250.167 203.477 260.489 208.428 272.796C209.591 275.956 211.074 279.355 210.025 282.754C206.352 298.187 196.143 311.236 184.03 321.125C192.413 319.767 200.706 317.612 208.496 314.167C220.564 308.852 231.64 300.411 238.346 288.891C242.293 282.15 244.608 273.983 242.498 266.238C239.305 253.474 231.697 242.353 223.712 232.11C211.45 217.796 198.653 203.926 185.376 190.546C180.003 199.466 173.456 207.598 166.396 215.241Z" fill="#2BA048"/>
</svg>
